<svg width="41" height="57" viewBox="0 0 41 57" fill="none" xmlns="http://www.w3.org/2000/svg">
<path d="M24.2516 42.4342H15.9766V51.7022H24.2516V42.4342Z" fill="#D3D3D3"/>
<path d="M15.9775 43.5262C18.4923 44.9387 21.3846 45.5328 24.2525 45.2262V42.4342H15.9775V43.5262Z" fill="#C6C6C6"/>
<path d="M4.04459 32.6692C6.27472 32.6692 8.08259 30.6066 8.08259 28.0622C8.08259 25.5178 6.27472 23.4552 4.04459 23.4552C1.81447 23.4552 0.0065918 25.5178 0.0065918 28.0622C0.0065918 30.6066 1.81447 32.6692 4.04459 32.6692Z" fill="#C6C6C6"/>
<path d="M36.1855 32.6692C38.4156 32.6692 40.2235 30.6066 40.2235 28.0622C40.2235 25.5178 38.4156 23.4552 36.1855 23.4552C33.9553 23.4552 32.1475 25.5178 32.1475 28.0622C32.1475 30.6066 33.9553 32.6692 36.1855 32.6692Z" fill="#C6C6C6"/>
<path d="M36.1695 19.2632C36.1695 12.4772 31.2045 7.51221 20.1155 7.51221C9.02648 7.51221 4.06048 12.4772 4.06048 19.2632C4.06048 26.0492 2.90248 43.9282 20.1145 43.9282C37.3265 43.9282 36.1695 26.0492 36.1695 19.2632Z" fill="#D3D3D3"/>
<path d="M12.2956 28.8623C13.2555 28.8623 14.0336 28.0103 14.0336 26.9593C14.0336 25.9083 13.2555 25.0563 12.2956 25.0563C11.3357 25.0563 10.5576 25.9083 10.5576 26.9593C10.5576 28.0103 11.3357 28.8623 12.2956 28.8623Z" fill="#292929"/>
<path d="M11.5386 26.6392C11.8257 26.6392 12.0586 26.4064 12.0586 26.1192C12.0586 25.8321 11.8257 25.5992 11.5386 25.5992C11.2514 25.5992 11.0186 25.8321 11.0186 26.1192C11.0186 26.4064 11.2514 26.6392 11.5386 26.6392Z" fill="white"/>
<path d="M9.51453 22.2433C10.3365 22.6543 11.6555 20.8433 14.6765 22.4193C15.2275 22.7063 15.5555 19.9683 12.3185 19.9683C9.51453 19.9673 9.01853 21.9953 9.51453 22.2433Z" fill="#3B3B3B"/>
<path d="M28.1486 28.8623C29.1085 28.8623 29.8866 28.0103 29.8866 26.9593C29.8866 25.9083 29.1085 25.0563 28.1486 25.0563C27.1888 25.0563 26.4106 25.9083 26.4106 26.9593C26.4106 28.0103 27.1888 28.8623 28.1486 28.8623Z" fill="#292929"/>
<path d="M27.3916 26.6392C27.6788 26.6392 27.9116 26.4064 27.9116 26.1192C27.9116 25.8321 27.6788 25.5992 27.3916 25.5992C27.1044 25.5992 26.8716 25.8321 26.8716 26.1192C26.8716 26.4064 27.1044 26.6392 27.3916 26.6392Z" fill="white"/>
<path d="M30.7146 22.2433C29.8926 22.6543 28.5736 20.8433 25.5526 22.4193C25.0016 22.7063 24.6736 19.9683 27.9116 19.9683C30.7146 19.9673 31.2106 21.9953 30.7146 22.2433Z" fill="#3B3B3B"/>
<path d="M20.1155 33.6542C18.3985 33.6542 17.3635 32.3712 17.3635 32.9922C17.3635 33.6132 17.8635 34.7922 20.1155 34.7922C22.3675 34.7922 22.8675 33.6132 22.8675 32.9922C22.8675 32.3712 21.8325 33.6542 20.1155 33.6542Z" fill="#C6C6C6"/>
<path d="M20.1146 39.3602C19.5206 39.3602 19.1626 38.9162 19.1626 39.1312C19.1626 39.3462 19.3346 39.7532 20.1146 39.7532C20.8946 39.7532 21.0666 39.3452 21.0666 39.1312C21.0666 38.9172 20.7086 39.3602 20.1146 39.3602Z" fill="#C6C6C6"/>
<path d="M20.1157 37.7793C17.3937 37.7793 15.7537 36.6713 15.7537 36.9523C15.7537 37.2333 16.5407 38.3383 20.1157 38.3383C23.6907 38.3383 24.4777 37.2333 24.4777 36.9523C24.4777 36.6713 22.8367 37.7793 20.1157 37.7793Z" fill="#A5A5A5"/>
<path d="M20.1146 46.1582V56.5852H0.0065918C0.0065918 52.3642 10.5986 46.1582 20.1146 46.1582Z" fill="#C5C5C5"/>
<path d="M20.1145 46.1582V56.5852H40.2225C40.2225 52.3642 29.6315 46.1582 20.1145 46.1582Z" fill="#C5C5C5"/>
<path d="M20.1145 46.1582C18.0563 46.1741 16.007 46.4312 14.0085 46.9242C14.7632 47.8103 15.6982 48.5251 16.7512 49.0209C17.8042 49.5167 18.9508 49.782 20.1145 49.7992C22.5129 49.7306 24.7866 48.7153 26.4385 46.9752C24.3712 46.4491 22.2478 46.1747 20.1145 46.1582Z" fill="#838383"/>
<path d="M15.9766 46.5183C17.1372 47.488 18.6016 48.0193 20.1141 48.0193C21.6265 48.0193 23.0909 47.488 24.2516 46.5183C21.5659 45.623 18.6622 45.623 15.9766 46.5183Z" fill="#D3D3D3"/>
<path d="M33.3137 6.06423C33.3137 6.06423 27.3557 -1.50777 14.9727 1.34723C2.58966 4.20223 1.66067 11.6502 2.03267 18.8962C2.40467 26.1422 3.39767 30.3962 4.57267 29.8682C5.74767 29.3402 5.13567 24.5592 5.25967 23.4552C5.38367 22.3512 6.50067 17.3552 14.0327 18.1042C18.7495 18.5051 23.4956 17.8259 27.9107 16.1182C27.9107 16.1182 30.4657 19.3472 32.1467 19.9662C35.5067 21.2022 34.4047 29.4452 35.7207 29.4452C37.0367 29.4452 43.4917 10.4082 33.3137 6.06423Z" fill="#3B3B3B"/>
</svg>
