<svg width="34" height="34" viewBox="0 0 34 34" fill="none" xmlns="http://www.w3.org/2000/svg">
<path d="M28.0066 0.615234H5.00659C2.24517 0.615234 0.0065918 2.85381 0.0065918 5.61523V28.6152C0.0065918 31.3767 2.24517 33.6152 5.00659 33.6152H28.0066C30.768 33.6152 33.0066 31.3767 33.0066 28.6152V5.61523C33.0066 2.85381 30.768 0.615234 28.0066 0.615234Z" fill="#F1F1F1"/>
<path d="M16.2076 13.8312C15.6184 13.8312 15.0424 14.0059 14.5524 14.3332C14.0624 14.6604 13.6805 15.1256 13.4548 15.6699C13.2291 16.2142 13.1699 16.8132 13.2845 17.3911C13.3992 17.9691 13.6826 18.5001 14.099 18.917C14.5153 19.3339 15.046 19.6181 15.6238 19.7335C16.2016 19.8489 16.8006 19.7905 17.3452 19.5655C17.8898 19.3406 18.3555 18.9593 18.6834 18.4697C19.0113 17.9802 19.1868 17.4045 19.1876 16.8152C19.1881 16.4236 19.1114 16.0356 18.9619 15.6736C18.8124 15.3116 18.5929 14.9826 18.3162 14.7055C18.0394 14.4283 17.7107 14.2085 17.3489 14.0585C16.9871 13.9084 16.5992 13.8312 16.2076 13.8312V13.8312ZM22.8386 16.0662C22.6726 14.5615 21.9987 13.1583 20.9279 12.0882C19.857 11.0182 18.4534 10.3451 16.9486 10.1802V8.61523H15.4586V10.1802C13.9452 10.3213 12.5286 10.9867 11.4538 12.0615C10.379 13.1363 9.7136 14.5528 9.57257 16.0662H8.00757V17.5562H9.57257C9.73832 19.0603 10.4117 20.4631 11.4817 21.5331C12.5517 22.6031 13.9545 23.2765 15.4586 23.4422V25.0072H16.9486V23.4422C18.4527 23.2765 19.8554 22.6031 20.9254 21.5331C21.9954 20.4631 22.6688 19.0603 22.8346 17.5562H24.3996V16.0662H22.8386ZM16.2076 22.0262C15.0097 22.0198 13.851 21.5985 12.9286 20.8342C12.0062 20.0699 11.3771 19.0097 11.1482 17.8338C10.9192 16.658 11.1047 15.4392 11.6729 14.3846C12.2412 13.3301 13.1572 12.5049 14.2651 12.0495C15.3731 11.5941 16.6046 11.5365 17.7502 11.8866C18.8958 12.2366 19.8848 12.9727 20.549 13.9696C21.2132 14.9665 21.5115 16.1627 21.3933 17.3548C21.2751 18.5469 20.7476 19.6612 19.9006 20.5082C19.4149 20.9914 18.8387 21.3741 18.2051 21.6346C17.5714 21.8951 16.8927 22.0281 16.2076 22.0262Z" fill="#A4A4A4"/>
</svg>
