<svg xmlns="http://www.w3.org/2000/svg" width="127.166" height="127.166" viewBox="0 0 127.166 127.166">
  <g id="Group_1450" data-name="Group 1450" transform="translate(-494.334 -348)">
    <path id="Path_184" data-name="Path 184" d="M121.332,135.352a14.019,14.019,0,1,0-14.019-14.019A14.035,14.035,0,0,0,121.332,135.352Zm0-22.5a8.477,8.477,0,1,1-8.477,8.477A8.486,8.486,0,0,1,121.332,112.855Z" transform="translate(436.585 288.375)" fill="#919191"/>
    <path id="Path_185" data-name="Path 185" d="M124.395,60.812H113.414a49.979,49.979,0,0,0-47.06-47.06V2.771a2.771,2.771,0,1,0-5.542,0V16.445a2.772,2.772,0,0,0,2.771,2.771,44.335,44.335,0,1,1-19.126,4.322,2.771,2.771,0,1,0-2.392-5A49.885,49.885,0,0,0,13.757,60.812H2.771a2.771,2.771,0,1,0,0,5.542H13.752a49.979,49.979,0,0,0,47.06,47.06v10.981a2.771,2.771,0,0,0,5.542,0V113.414a49.979,49.979,0,0,0,47.06-47.06h10.981a2.771,2.771,0,0,0,0-5.542Z" transform="translate(494.334 348)" fill="#919191"/>
  </g>
</svg>
