<svg xmlns="http://www.w3.org/2000/svg" width="742.925" height="446.324" viewBox="0 0 742.925 446.324">
  <g id="Group_11" data-name="Group 11" transform="translate(0 0)">
    <path id="Path_1" data-name="Path 1" d="M28.566,286.355a225.593,225.593,0,0,0,2.771,24.356A239,239,0,0,0,58.014,386.9c23.786,42.764,61.119,77.71,109.37,91.848,62.663,18.365,126.717-7.972,189.62-10.71,47.977-2.081,94.027,15.638,141.983,15.529,42.8-.1,86.077-6.155,126.41-20.523,82.112-29.24,139.409-94.6,142.727-182.119,2.9-76.669-23.589-170.018-91.881-214.962-73.3-48.24-169.941-25.626-239.558,17.883-40.355,25.232-82.233,50.441-131.787,48.766C257.205,131,212.272,109.6,164.2,111.585c-61.141,2.53-106.873,49.73-125.687,104.135A184.052,184.052,0,0,0,28.566,286.355Z" transform="translate(-25.412 -38.884)" fill="#4a89e8" opacity="0.1"/>
    <path id="Path_2" data-name="Path 2" d="M322.4,156.286a18.785,18.785,0,0,1,10.781-16.272c6.37-2.866,13.187-1.45,18.651,2.236,1.481-8.6,7.97-16.786,17.6-15.134,7.907,1.357,11.5,8.8,11.863,16.14,8.771.027,15.741,6.628,15.637,15.239a10.293,10.293,0,0,1,8.029,6.917c1.822,5.623-1.23,11.78-5.963,14.91-9.994,6.609-24.324,3.817-32.112-4.775-9.173,6.3-22.9,6.192-30.837-1.933-4.973,3.221-10.143,6.233-16.4,5.018-4.856-.943-10.006-4.437-11.319-9.416C305.894,160,314.749,154.7,322.4,156.286Z" transform="translate(31.18 -30.511)" fill="#fff"/>
    <g id="Group_1" data-name="Group 1" transform="translate(519.914 30.113)">
      <path id="Path_3" data-name="Path 3" d="M93.578,115.409,210.161,66.381h10.654a12.707,12.707,0,0,1,12.65,11.8c.02.311.031.624.031.939V442.69A10.293,10.293,0,0,1,226.3,452.6c-6.765,2.042-14.3,3.758-17.762,2.33L93.578,411.455c-4.259-1.632-7.643-13.59-7.643-20.435V130.729C85.935,123.885,89.319,117.04,93.578,115.409Z" transform="translate(-73.641 -66.381)" fill="#2343ba"/>
      <path id="Path_4" data-name="Path 4" d="M104.8,406.337l125.71,48.154c7.749,2.968,14.207-2.306,14.207-11.865V79.116c0-9.559-6.458-14.833-14.207-11.866L104.8,115.4c-4.26,1.632-7.643,8.476-7.643,15.321V391.016C97.162,397.861,100.545,404.705,104.8,406.337Z" transform="translate(-97.162 -66.377)" fill="#2460da"/>
      <path id="Path_5" data-name="Path 5" d="M110.75,367.137l124.656,35.769V95.982L110.75,136.006Z" transform="translate(-102.726 -63.565)" fill="#d0e1fc"/>
      <path id="Path_6" data-name="Path 6" d="M165.915,375.915c0,7.992,4.5,16.151,10.192,18.271,5.842,2.177,10.695-2.812,10.695-11.2s-4.852-16.662-10.695-18.44C170.418,362.814,165.915,367.923,165.915,375.915Z" transform="translate(-114.535 -38.051)" fill="#6ea9ff"/>
      <path id="Path_7" data-name="Path 7" d="M157.74,114.994l37.29-12.832c1.28-.44,2.334-2.23,2.334-3.974h0c0-1.745-1.053-2.795-2.334-2.336L157.74,109.2c-1.073.384-1.946,1.994-1.946,3.579h0C155.794,114.366,156.667,115.363,157.74,114.994Z" transform="translate(-114.013 -63.588)" fill="#6ea9ff"/>
      <path id="Path_8" data-name="Path 8" d="M113.245,85.4c0,2.38,1.556,3.775,3.488,3.111,1.948-.668,3.538-3.17,3.538-5.584s-1.59-3.8-3.538-3.094C114.8,80.527,113.245,83.018,113.245,85.4Z" transform="translate(9.676 -65.119)" fill="#6ea9ff"/>
    </g>
    <path id="Path_9" data-name="Path 9" d="M110.72,291.471A239,239,0,0,0,137.4,367.658c30.083,18.628,89.044,51.777,152.561,69.015,119.237,32.372,225.967-23.512,305.648-66.616s161.793-24.1,161.793-24.1l.022-103.894C579.772,229,497.637,360.912,382.693,388.345,285.392,411.562,149.991,320.1,110.72,291.471Z" transform="translate(-104.796 -19.643)" fill="#ffdb4c"/>
    <path id="Path_38" data-name="Path 38" d="M64.01,68a3.978,3.978,0,0,1-3.337,4.174c-4.586.865-9.292-3.648-11.694-7.027a20.105,20.105,0,0,1-1.563-2.594c-.234-.245-.461-.5-.678-.755q-.57,4.445-1.325,8.873a34.207,34.207,0,0,0,4.509,6.215,52.548,52.548,0,0,0,6.872,5.862c2.184,1.5,4.822,2.4,5.694,5.159a5.016,5.016,0,0,1-2.079,5.875c-5.094,3.175-9.967-2.521-12.446-6.336a30.551,30.551,0,0,1-4-9.1q-.954,4.581-2.108,9.121a19.4,19.4,0,0,0,3.26,6.065c2.1,2.609,4.9,4.587,7.3,6.889,3.616,3.457,9.491,12.435,2.54,15.863-6.386,3.15-11.511-5.063-13.829-9.736a31.935,31.935,0,0,1-2.58-7.323q-.728,2.338-1.507,4.654a32.781,32.781,0,0,1,.315,3.652,36.062,36.062,0,0,0,1.07,5.688,81.81,81.81,0,0,0,4.321,11.114c1.516,3.434,2.822,6.99,2.824,10.791,0,3.1-.647,7.907-4.205,8.861-3.653.979-6.446-2.629-7.941-5.467a33.232,33.232,0,0,1-2.962-10.363c-.287-1.8-.5-3.626-.643-5.457-.658,1.513-1.326,3.023-2.017,4.522q-1.669,3.624-3.464,7.188c-1.231,2.445-2.34,5.127-4.33,7.055-1.8,1.747-5.309.65-4.751-2.21.845-4.328,3.725-8.4,5.606-12.36q1.91-4.026,3.659-8.126c-2.7,2.507-5.46,5.25-8.576,7.139-5.128,3.111-14.7,2.252-15.844-5.02-1.253-7.957,9.513-9.305,14.886-10.522,3.883-.88,7.882-1.856,11.365-3.857a17.231,17.231,0,0,0,3.924-3c.1-.1.188-.216.28-.326q.825-2.365,1.6-4.748a27.736,27.736,0,0,1-5.978,4.141c-5.452,2.794-12.951,4.083-16.994-1.751-1.458-2.1-1.987-5.19-.459-7.411,1.727-2.51,6.1-2.584,8.827-2.825,3.692-.326,7.284.2,10.964.243a11.556,11.556,0,0,0,5.428-.957,5.036,5.036,0,0,0,.994-.681c.127-.458.26-.914.384-1.373q1.291-4.764,2.4-9.59a22.66,22.66,0,0,1-7.335,4.452c-5.357,1.91-13.876,2.52-17.281-3.112a7.286,7.286,0,0,1-.026-7.585c1.8-2.7,5.015-2.974,7.972-2.605,5.954.743,14.031,3.806,18.686-.832q1.1-5.864,1.918-11.78a17.256,17.256,0,0,1-5.473,4.121c-4.059,1.962-10.674,2.947-14.105-.774-3.712-4.026.828-8.337,4.955-9.071,3.209-.569,6.286.238,9.46.554a8.652,8.652,0,0,0,5.959-1.228q.93-8.412,1.251-16.854c.383-10.288.839-21.338-2.354-31.254a1.7,1.7,0,0,1,3.178-1.189c3.428,8.715,3.836,18.167,4.022,27.424a227.06,227.06,0,0,1-.8,23.794,17.741,17.741,0,0,0,3.587,4.29,93.527,93.527,0,0,0,8.133,5.665C61.435,63.595,63.816,65.38,64.01,68Z" transform="matrix(-0.998, 0.07, -0.07, -0.998, 73.92, 275.099)" fill="#1bbc9d"/>
    <path id="Path_39" data-name="Path 39" d="M6.847,37.685a2.661,2.661,0,0,0,1.1,3.4c2.667,1.625,6.679-.088,8.982-1.636a13.652,13.652,0,0,0,1.591-1.256c.2-.1.405-.2.6-.312q-.693,2.917-1.267,5.868a22.8,22.8,0,0,1-4.291,2.826,35.189,35.189,0,0,1-5.687,2.047c-1.722.422-3.587.364-4.783,1.885a3.355,3.355,0,0,0-.087,4.17c2.439,3.19,6.835.775,9.289-1.027A20.443,20.443,0,0,0,16.956,48.9q-.485,3.095-.834,6.209a12.973,12.973,0,0,1-3.474,3.026,51.623,51.623,0,0,1-6.2,2.589C3.367,62.03-2.432,66.262,1.11,70.051c3.255,3.48,8.4-.45,10.959-2.829a21.334,21.334,0,0,0,3.346-3.975c-.065,1.091-.114,2.18-.155,3.271A21.818,21.818,0,0,0,14.2,68.729a24.1,24.1,0,0,1-2.013,3.309,55.02,55.02,0,0,1-5.332,5.938,18.037,18.037,0,0,0-4.318,6.088c-.733,1.941-1.463,5.1.54,6.541,2.057,1.476,4.656-.123,6.263-1.546a22.215,22.215,0,0,0,4.3-5.789q.91-1.59,1.692-3.265c.055,1.1.117,2.206.195,3.307q.189,2.663.47,5.319a16.822,16.822,0,0,0,1.045,5.441c.716,1.52,3.17,1.661,3.5-.262.493-2.909-.348-6.136-.59-9.062q-.245-2.972-.37-5.952a37.5,37.5,0,0,0,3.682,6.5c2.476,3.159,8.672,4.882,11.107.6,2.663-4.686-3.758-8.073-6.835-10.1a27.13,27.13,0,0,1-6.2-5.1,11.544,11.544,0,0,1-1.749-2.8c-.037-.088-.067-.18-.1-.271q.043-1.676.119-3.351a18.583,18.583,0,0,0,2.764,4c2.754,3.038,7.145,5.617,11.054,2.92a4.5,4.5,0,0,0,2.038-4.532c-.488-1.98-3.208-3.059-4.858-3.854a72.593,72.593,0,0,0-6.923-2.439A7.741,7.741,0,0,1,20.5,58.482a3.387,3.387,0,0,1-.461-.661c.028-.316.054-.634.084-.951q.317-3.289.765-6.571A15.144,15.144,0,0,0,24.43,54.82c2.9,2.462,8.092,4.856,11.555,2.134a4.872,4.872,0,0,0,1.808-4.743c-.486-2.116-2.437-3.047-4.375-3.514-3.9-.942-9.684-.933-11.5-4.936q.7-3.933,1.584-7.829a11.52,11.52,0,0,0,2.453,3.873c2.076,2.187,5.986,4.367,9.014,2.848,3.274-1.644,1.451-5.415-.96-6.85-1.874-1.116-3.992-1.337-6.054-1.889a5.786,5.786,0,0,1-3.44-2.176q1.406-5.487,3.2-10.847c2.19-6.531,4.516-13.558,8.857-19.011A1.136,1.136,0,0,0,34.859.386c-4.2,4.647-6.693,10.467-9,16.219a152.213,152.213,0,0,0-5.119,15.086,11.885,11.885,0,0,1-3.259,1.839,62.771,62.771,0,0,1-6.431,1.625C9.5,35.537,7.586,36.092,6.847,37.685Z" transform="translate(102.487 357.733) rotate(-131)" fill="#27debf"/>
    <path id="Path_54" data-name="Path 54" d="M68.918,171.156A18.784,18.784,0,0,1,79.7,154.884c6.371-2.867,13.189-1.45,18.652,2.236,1.481-8.6,7.97-16.786,17.6-15.133,7.907,1.356,11.5,8.8,11.865,16.14,8.771.027,15.741,6.628,15.637,15.239a10.3,10.3,0,0,1,8.029,6.917c1.822,5.623-1.23,11.78-5.963,14.91-9.994,6.609-24.324,3.816-32.112-4.776-9.173,6.306-22.9,6.193-30.838-1.933-4.973,3.222-10.144,6.235-16.406,5.019-4.855-.943-10.005-4.437-11.318-9.416C52.413,174.873,61.269,169.572,68.918,171.156Z" transform="translate(562.251 -29.097)" fill="#fff"/>
    <path id="Path_55" data-name="Path 55" d="M136,78.2a12.616,12.616,0,0,1,6.351-.65c.758.091,1.5.243,2.213.323a15.231,15.231,0,0,1,9.121-16.238,17.937,17.937,0,0,1,16.056,1.339c-1.977-1.309,8.311-7.851,9.5-8.213a20.523,20.523,0,0,1,14.815,1.259,18.893,18.893,0,0,1,10.082,14.959,16.378,16.378,0,0,1-.418,4.861,20.591,20.591,0,0,1,9.1,3.317,14.517,14.517,0,0,1,5.512,17.592c-4.84,12.143-21.253,13.992-31.226,7.142-7.355,7.768-22.891,3.313-31.8-1.534-8.092,4.128-18.382,4.166-24.37-3.671C125.809,91.981,127.8,81.475,136,78.2Z" transform="translate(414.169 -37.452)" fill="#fff"/>
    <g id="Asset_2_1x" data-name="Asset 2@1x" transform="translate(657.817 274.412) rotate(161)">
      <g id="OBJECTS" transform="translate(0 0)">
        <path id="Path_111" data-name="Path 111" d="M56.047,63.847C43.076,70.7,8.488,71.189,3.343,75.794S.525,96.035.525,96.035s19.982,5.635,22.54-3.841S63.67,84.953,72.786,72.083C87.983,50.53,58.965,13.29,58.965,13.29a7.331,7.331,0,0,0-1.585.166C54.5,8.412,63.865,5.349,70.494,4.809S76.389,1.48,76.389,1.48c-4.475-3.329-28.434,0-28.434,0C46.16,4.045,54.49,15.632,54.49,15.632S81.476,50.393,56.047,63.847Z" transform="translate(142.564 19.821)" fill="#49469b"/>
        <path id="Path_112" data-name="Path 112" d="M.068,40.17c1.153,4.475,6.32,7.826,12.38,5.765s6.111-19.067,17.7-29.242C39.945,8.1,58.6,5.322,64.179,4.659c.663-.072,1.153-.231,1.218-.62,1.074,0,2.277-.223,2.2-1.067C67.486,1.632,67.27.479,65.944.278a5.425,5.425,0,0,0-1.722,0A2.774,2.774,0,0,0,62.637.026,119.127,119.127,0,0,0,26.751,8.86C12.239,15.273-1.07,35.659.068,40.17Z" transform="translate(156.021 126.186)" fill="#c81d23"/>
        <path id="Path_113" data-name="Path 113" d="M2.213,46.276c1.621.187,3.286-2.832,3.725-6.73a15.183,15.183,0,0,0-.022-3.877,6.14,6.14,0,0,0,2.364-3.6L15.58.173,14.86,0,7.56,31.9a5.383,5.383,0,0,1-1.773,2.882c-.375-1.556-1.059-2.594-1.946-2.7C2.221,31.9.549,34.92.109,38.818S.592,46.1,2.213,46.276Z" transform="translate(219.781 131.407)" fill="#5a4a42"/>
        <ellipse id="Ellipse_28" data-name="Ellipse 28" cx="9.461" cy="4.785" rx="9.461" ry="4.785" transform="translate(253.537 126.272) rotate(107.79)" fill="#d0d2d3"/>
        <path id="Path_114" data-name="Path 114" d="M0,19.629s3.653,1.182,4.806,0L9.8,2.882S9.418.771,6.536,0Z" transform="translate(241.198 123.026)" fill="#6d6e70"/>
        <path id="Path_115" data-name="Path 115" d="M32.874,7.2l-5.267,17.33a2.882,2.882,0,0,1-3.6,1.96c-4.72-1.369-14.361-5.008-20.551-13.172C-5,2.174,3.978-.492,10.053.07c4.468.418,15.19,2.392,20.566,3.416A2.882,2.882,0,0,1,32.874,7.2Z" transform="translate(215.84 117.011)" fill="#ef1c23"/>
        <ellipse id="Ellipse_29" data-name="Ellipse 29" cx="3.516" cy="9.735" rx="3.516" ry="9.735" transform="translate(77.897 71.494) rotate(175.26)" fill="#ee4036"/>
        <ellipse id="Ellipse_30" data-name="Ellipse 30" cx="27.318" cy="27.318" rx="27.318" ry="27.318" transform="translate(244.203 0)" fill="#404041"/>
        <ellipse id="Ellipse_31" data-name="Ellipse 31" cx="13.655" cy="13.655" rx="13.655" ry="13.655" transform="translate(288.037 17.332) rotate(103.78)" fill="#f5f8ff"/>
        <ellipse id="Ellipse_32" data-name="Ellipse 32" cx="7.833" cy="5.34" rx="7.833" ry="5.34" transform="matrix(-0.557, 0.83, -0.83, -0.557, 285.439, 27.909)" fill="#8e8e8e"/>
        <ellipse id="Ellipse_33" data-name="Ellipse 33" cx="27.318" cy="27.318" rx="27.318" ry="27.318" transform="translate(80.333 0)" fill="#404041"/>
        <ellipse id="Ellipse_34" data-name="Ellipse 34" cx="13.655" cy="13.655" rx="13.655" ry="13.655" transform="translate(126.961 27.317) rotate(135)" fill="#fff"/>
        <ellipse id="Ellipse_35" data-name="Ellipse 35" cx="7.833" cy="5.34" rx="7.833" ry="5.34" transform="matrix(-0.557, 0.83, -0.83, -0.557, 121.755, 27.917)" fill="#8e8e8e"/>
        <path id="Path_116" data-name="Path 116" d="M55.829,24.507a1.866,1.866,0,0,0-.771-2.565L16.4,2.032A16.206,16.206,0,0,0,8.544,0H2.362A2.356,2.356,0,0,0,.005,2.515c.411,6.737,3.4,23.779,17.856,30.438C37.1,41.758,52.363,30.834,55.829,24.507Z" transform="translate(236.934 27.318)" fill="#ef1c23"/>
        <path id="Path_117" data-name="Path 117" d="M5.625,17.136H54.243C62.89,17.136,65.052.231,73.576.231s71.4-.519,76.656,0,7.552,12.293,18.31,31.547,25.105,14.044,26.9,17.7-23.6,51.882-26.9,53.324a20.181,20.181,0,0,1-12.178,1.6,5.765,5.765,0,0,1-3.149-1.6c-1.506-1.938,10.715-28.824,5.707-34.956-4.6-5.657,2.63-52.048-9.634-59.456a6.991,6.991,0,0,0-3.682-1c-17.294,0-43.149.519-47.991,6.485s11,48.344,10.694,52.949S59.928,77.586,56.8,75.539s2.1-13.4-5.563-13.4H7.931c-8.445,0-4.324-32.715-6.406-34.588S-1.552,17.136,5.625,17.136Z" transform="translate(72.403 14.959)" fill="#ef1c23"/>
        <path id="Path_118" data-name="Path 118" d="M.841,15.161a2.639,2.639,0,0,1,2.392-1.83h51.7C59.252,13.331,65.86,0,69.269,0s6.4,3.524,7.926,5.642c0,0,5.628,5.383,5.628,21.257S71.02,56.617,52.075,56.617,15.477,39.654,9.82,28.73c0,0-7.926-1.571-8.971-3.106A7.048,7.048,0,0,1,.207,23.2C-.124,20.8-.153,17.323.841,15.161Z" transform="translate(69.209 16.444)" fill="#c81d23"/>
        <rect id="Rectangle_1556" data-name="Rectangle 1556" width="4.777" height="25.134" rx="2.389" transform="translate(78.235 74.65) rotate(175.27)" fill="#ffe2bb"/>
        <path id="Path_119" data-name="Path 119" d="M8.385,0h46.42c10.369,0,20.9,33.046,23.96,40.223s-5.123,35.864-10.492,52.4a68.81,68.81,0,0,0-2.709,10.283,5.765,5.765,0,0,1-3.149-1.6c-1.506-1.938,10.715-28.824,5.707-34.956C63.517,60.7,70.752,14.3,58.487,6.9c-.13-1.362-.526-2.284-1.369-2.284H20.109c-7.689,0-9.735,3.848-11.724,4.612S3.2,5.894.811,4.9,1.4,0,8.385,0Z" transform="translate(163.204 16.473)" fill="#382423"/>
        <path id="Path_120" data-name="Path 120" d="M22.944,10.468A23.152,23.152,0,0,1,7.926,3.161C1.232-3.951,0,3.161,0,3.161S10.225,15.512,9.562,22.833,22.944,10.468,22.944,10.468Z" transform="translate(157.768 171.121)" fill="#f8c3a3"/>
        <path id="Path_121" data-name="Path 121" d="M1.275.291s2.162.843,2.075,5.123-2.075.836-2.075.836S1.153,1.862,0,.291C0,.291.432-.364,1.275.291Z" transform="translate(181.864 176.974)" fill="#404041"/>
        <path id="Path_122" data-name="Path 122" d="M37.345,32.39a16.177,16.177,0,0,0,0-10.449c-1.989-5.332.721-7.523.721-10.982,0-12.567-3.149-17.035-31.742,1.362C-16.036,26.7,27.307,51.521,37.345,32.39Z" transform="translate(155.811 178.642)" fill="#f8c3a3"/>
        <path id="Path_123" data-name="Path 123" d="M5.433,7.9S7.6,1.215,10.16.372c0,0-.757-.836-2.428,0S0,7.376,0,7.376Z" transform="translate(172.979 176.894)" fill="#58595b"/>
        <path id="Path_124" data-name="Path 124" d="M12.022,17.214S15.358,2.341,13.377.266.212,8.848,0,12.408,12.022,17.214,12.022,17.214Z" transform="translate(164.409 181.568)" fill="#404041"/>
        <path id="Path_125" data-name="Path 125" d="M28.745,21.049s-2.926-3.243-5.959-14.635S.1,1.81,0,4.108,16.624,28.363,23,26.014,28.745,21.049,28.745,21.049Z" transform="translate(154.373 186.538)" fill="#58595b"/>
        <path id="Path_126" data-name="Path 126" d="M7.5,1.672,18.347,0c3.711,0,8.431,1.348,8.993,5.044.627,4.093,3.8,13.5,7,15.853,6.86,5.095,10.24,1.333,12.87,1.362,4.259.065-1.1,9.951-2.025,11.306A25.033,25.033,0,0,1,29.408,44.078,25.049,25.049,0,0,1,1.356,27.692a24.423,24.423,0,0,1-1.1-4.54c-.072-.576-.137-1.16-.18-1.729A24.976,24.976,0,0,1,7.5,1.672Z" transform="translate(146.374 188.139)" fill="#ef1c23"/>
        <path id="Path_127" data-name="Path 127" d="M.2,7.768A.958.958,0,0,1,.3,6.485C3.7,3.423,22.4.656,27,0H27.1a.9.9,0,0,1,.894.9,1.664,1.664,0,0,1-.18.721,1.65,1.65,0,0,1-.713.843L17.4,7.213h0l-1.175,5.116a.872.872,0,0,1-.663.649C6.385,14.765,1.557,9.569.2,7.768Z" transform="translate(179.147 201.823)" fill="#404041"/>
        <path id="Path_128" data-name="Path 128" d="M0,5.534S14.722,1.038,26.251,0a1.65,1.65,0,0,1-.721.778l-9.7,4.749h0A45.555,45.555,0,0,1,0,5.534Z" transform="translate(180.711 203.509)" fill="#58595b"/>
        <ellipse id="Ellipse_36" data-name="Ellipse 36" cx="0.627" cy="0.994" rx="0.627" ry="0.994" transform="translate(188.818 211.558)" fill="#808184"/>
        <path id="Path_129" data-name="Path 129" d="M.05,2.025C-.123,1,.166.1.692.008s1.1.67,1.261,1.693-.115,1.924-.641,2.01S.216,3.049.05,2.025Z" transform="translate(188.444 199.79)" fill="#404041"/>
        <path id="Path_130" data-name="Path 130" d="M1.4,9.282A8.835,8.835,0,0,1,2.772,4.49C3.838,3.157,6.548,3.049,6.187,2.371,5.351.808,1.712-.641,1.194.3S-1.321,9.217,1.4,9.282Z" transform="translate(191.444 190.35)" fill="#d8a675"/>
        <path id="Path_131" data-name="Path 131" d="M12.077,0a.36.36,0,0,1,.014.721C7.364.944.713,1.974.721,3.567a.36.36,0,0,1-.36.36h0A.36.36,0,0,1,0,3.567C0,.685,10.045.1,12.063,0Z" transform="translate(181.079 186.784)" fill="#b28256"/>
        <path id="Path_132" data-name="Path 132" d="M.663,8.68C-.779,6.771.209,3.586,2.875,1.568s6-2.1,7.444-.187.454,5.095-2.212,7.112S2.111,10.59.663,8.68Z" transform="translate(177.145 218.248)" fill="#ffe2bb"/>
        <path id="Path_133" data-name="Path 133" d="M.641,5.169C-.31,4.384-.188,2.676.908,1.357S3.66-.394,4.6.392,5.433,2.878,4.338,4.2,1.585,5.955.641,5.169Z" transform="translate(151.427 191.559)" fill="#ffe2bb"/>
        <path id="Path_134" data-name="Path 134" d="M.387,3.12A1.673,1.673,0,0,1,.546.822,1.675,1.675,0,0,1,2.779.238a1.681,1.681,0,0,1-.159,2.3A1.7,1.7,0,0,1,.387,3.12Z" transform="translate(181.052 215.377)" fill="#ffe2bb"/>
        <ellipse id="Ellipse_37" data-name="Ellipse 37" cx="0.937" cy="0.67" rx="0.937" ry="0.67" transform="translate(154.702 198.033) rotate(129.67)" fill="#ffe2bb"/>
        <path id="Path_135" data-name="Path 135" d="M0,4.965,24.277,0,16.783,11.342,17.2,7.977,1.283,11.234a24.425,24.425,0,0,1-1.1-4.54C.123,6.089.058,5.505,0,4.965Z" transform="translate(146.433 204.626)" fill="#404041"/>
        <path id="Path_136" data-name="Path 136" d="M6.789,15.632S-1.541,4.045.253,1.48c0,0,23.96-3.329,28.434,0,0,0,.771,2.818-5.887,3.329S6.659,8.412,9.736,13.521,6.789,15.632,6.789,15.632Z" transform="translate(184.847 17.544)" fill="#5a4a42"/>
        <path id="Path_137" data-name="Path 137" d="M17.6,8.82c.656,4.489-10.485,4.093-14.671,1.167S-.678,0,2.925,0,16.645,2.255,17.6,8.82Z" transform="translate(219.321 121.506)" fill="#c81d23"/>
        <path id="Path_138" data-name="Path 138" d="M0,2.882A2.882,2.882,0,1,1,2.882,5.765,2.882,2.882,0,0,1,0,2.882Z" transform="translate(219.213 121.448)" fill="#6d6e70"/>
        <path id="Path_139" data-name="Path 139" d="M1.434,5.866s3.041-1.067,4.23,0,6.017,5.512,9.216,3.077-4.525-3.091-5.822-4.46.468-2.1.086-3.394S6.824-.677,4.1,1.571,0,4.115,0,4.115Z" transform="translate(210.184 119.849)" fill="#f8c3a3"/>
        <path id="Path_140" data-name="Path 140" d="M.663,4.035,0,5.383,7.292,7.011a1.669,1.669,0,0,0,1.441-2.2C8.337,2.753,2.248,0,2.248,0Z" transform="translate(214.313 118.703)" fill="#404041"/>
        <path id="Path_141" data-name="Path 141" d="M0,2.882A2.882,2.882,0,1,1,2.882,5.765,2.882,2.882,0,0,1,0,2.882Z" transform="translate(212.569 118.537)" fill="#6d6e70"/>
        <path id="Path_142" data-name="Path 142" d="M5.176,5.482S3.454,7.06,2.214,6.872-.913,2.434.506.481c.879-1.211,4.006.195,3.048.627-1.275.576-1.34,1.744-.252,2.327C4.794,4.221,5.637,4.278,5.176,5.482Z" transform="translate(223.621 119.231)" fill="#404041"/>
        <ellipse id="Ellipse_38" data-name="Ellipse 38" cx="1.751" cy="0.814" rx="1.751" ry="0.814" transform="translate(224.084 119.085)" fill="#6d6e70"/>
        <path id="Path_143" data-name="Path 143" d="M.317,4.965A3.24,3.24,0,0,0,3.2,2.9C3.344,1.967,1.924.123,1.924.123c1.809-.4,2.284.3,2.284.3A2.637,2.637,0,0,1,6.161,2.191,7.841,7.841,0,0,1,6.5,5.325,1.693,1.693,0,0,0,7.725,4.079,3.827,3.827,0,0,1,8.15,2.926a7.141,7.141,0,0,1,1.2-1.571A2.738,2.738,0,0,1,11.328,2.8c.5,1.211-.908,5.808-3.661,6.529-.339.086-3.012-.584-3.127-1.261l-.562.13a2.781,2.781,0,0,1-1.441-1.34C1.153,6.37-.764,4.979.317,4.965Z" transform="translate(216.921 119.776)" fill="#f8c3a3"/>
        <path id="Path_144" data-name="Path 144" d="M5.916,0s.151,1.016.346,1.8S4.569,6,4.151,6.125s-4.165.4-4.151.641,1.953.367,2.8.195,1.441-.079,1.989-.821,1.982-3.408,1.9-4.05A10.853,10.853,0,0,0,5.916,0Z" transform="translate(220.69 121.21)" fill="#b28256"/>
        <path id="Path_145" data-name="Path 145" d="M2.775,3.416c.721-.079.9-1.016.9-1.016A1.694,1.694,0,0,0,4.9,1.153,3.825,3.825,0,0,1,5.326,0a1.91,1.91,0,0,1-.994,2.291c-.18.079-.721,1.232-1.153,1.542a7.112,7.112,0,0,1-3.171.238C-.15,3.877,2.026,3.495,2.775,3.416Z" transform="translate(219.745 122.702)" fill="#b28256"/>
        <path id="Path_146" data-name="Path 146" d="M2.172,0a4.944,4.944,0,0,1,.641,1.78c.1.886.079,2.1-.641,2.464S-.141,5.332.01,5.52s1.9-.85,2.493-.93.987-.425.771-1.708S3.137.6,2.172,0Z" transform="translate(218.957 120.194)" fill="#b28256"/>
        <path id="Path_147" data-name="Path 147" d="M.517,82.774S-1.788,67.145,3.335,62.54s39.769-5.1,52.7-11.991c25.422-13.453-1.6-48.186-1.6-48.186S55.045,0,58.921,0c0,0,31.519,40.1,13.043,61.863C58.035,78.27,31.769,73.262,29.2,82.76S.517,82.774.517,82.774Z" transform="translate(137.196 30.776)" fill="#4456a2"/>
        <path id="Path_148" data-name="Path 148" d="M39.855,67.17s-7.926,8.942-13.043,9.123-1.571-5.945-1.571-5.945S14.512,66.745,5.3,39.564s-3.6-36.887-3.6-36.887,27.714-6.024,33.558,0c9.634,9.937-3.264,55.01.317,60.645C35.582,63.322,41.65,61.787,39.855,67.17Z" transform="translate(134.724 109.079)" fill="#ef1c23"/>
        <path id="Path_149" data-name="Path 149" d="M.576,4.038s3.6.591,3.459-1.059C3.927,1.537,3.74.283,2.544.06A4.266,4.266,0,0,0,0,.413Z" transform="translate(208.829 122.613)" fill="#c81d23"/>
        <path id="Path_150" data-name="Path 150" d="M58.851,3.949c.223.721-.3.966-1.059,1.074-5.044.721-21.819,3.725-30.632,13.028C16.718,29.061,16.675,47.516,11.213,49.706S1.124,48.265.065,43.408,11.018,16.473,24.09,9.591A92.343,92.343,0,0,1,56.415,0c.576,0,1.441,0,1.607.54Z" transform="translate(151.988 122.399)" fill="#ef1c23"/>
        <path id="Path_151" data-name="Path 151" d="M.3,18.051l1.441,3.488a4.893,4.893,0,0,0,5.621,2.882c10.9-2.508,40.756-9.159,48.589-8.539,7.595.605,3.228-9.591,1.03-13.951A3.5,3.5,0,0,0,53.842,0H52.754S30.171,13.057,2.154,13.057l-.937.829A3.661,3.661,0,0,0,.3,18.051Z" transform="translate(125.889 73.082)" fill="#5a4a42"/>
        <path id="Path_152" data-name="Path 152" d="M77.768,0h-61.9C6.264,0,.016,2.306.016,13.641s-1.34,60.486,20.335,60.486H70.173c12.733,0,20.112,0,20.112-28.3C90.285,20.357,91.142,0,77.768,0Z" transform="translate(35.835 75.381)" fill="#c81d23"/>
        <path id="Path_153" data-name="Path 153" d="M0,0C1.441,17.294,5.981,36.858,19.658,36.858H69.494c12.733,0,20.112,0,20.112-28.3V0Z" transform="translate(36.514 113.421)" fill="#372322"/>
        <path id="Path_154" data-name="Path 154" d="M77.768,0h-61.9C6.264,0,.016,2.083.016,12.322s-1.34,54.613,20.335,54.613H70.173c12.733,0,20.112,0,20.112-25.552C90.285,18.418,91.142,0,77.768,0Z" transform="translate(35.835 78.76)" fill="#ef1c23"/>
        <path id="Path_155" data-name="Path 155" d="M0,1.535A1.535,1.535,0,1,1,1.535,3.07,1.535,1.535,0,0,1,0,1.535Z" transform="translate(238.611 139.167)" fill="#ffe2bb"/>
        <path id="Path_156" data-name="Path 156" d="M.385,0a.4.4,0,0,1,.3.137c3.985,4.713,14.03,7.97,14.131,8a.382.382,0,0,1-.231.721C14.155,8.72,4.218,5.5.089.62A.382.382,0,0,1,.14.08.36.36,0,0,1,.385,0Z" transform="translate(222.251 131.622)" fill="#ffe2bb"/>
        <path id="Path_157" data-name="Path 157" d="M19.845,0l.721.223L11,31.511a6.2,6.2,0,0,1-4.46,4.2L.18,37.226,0,36.505,6.348,34.97A5.426,5.426,0,0,0,10.254,31.3Z" transform="translate(208.735 132.012)" fill="#5a4a42"/>
        <path id="Path_158" data-name="Path 158" d="M.275,6.5C1,2.646,2.877-.243,4.476.016S6.8,3.684,6.083,7.546s-2.6,6.745-4.2,6.485S-.438,10.364.275,6.5Z" transform="translate(207.71 160.877)" fill="#6d6e70"/>
        <path id="Path_159" data-name="Path 159" d="M.915,3.482l-.721-.3L0,.65S2.8-.33,4.071.117.915,3.482.915,3.482Z" transform="translate(227.579 131.362)" fill="#6d6e70"/>
        <path id="Path_160" data-name="Path 160" d="M.368,0H.476A9.4,9.4,0,0,1,6.759,5.332a.383.383,0,1,1-.721.259A8.777,8.777,0,0,0,.274.742.4.4,0,0,1,.015.259.382.382,0,0,1,.368,0Z" transform="translate(229.423 125.332)" fill="#fff"/>
        <path id="Path_161" data-name="Path 161" d="M.137,5.077c-.526-.721.5-2.385,2.313-3.689S6.147-.385,6.673.343s-.5,2.385-2.313,3.689S.663,5.805.137,5.077Z" transform="translate(282.941 51.611)" fill="#ffe2bb"/>
        <path id="Path_162" data-name="Path 162" d="M.825.024a.779.779,0,0,1,.4.108c15.925,9.7,28.7,3.048,28.824,2.983a.764.764,0,0,1,.721,1.347c-.13.072-13.641,7.155-30.351-3.019A.764.764,0,0,1,.818,0Z" transform="translate(250.943 54.302)" fill="#ffe2bb"/>
        <path id="Path_163" data-name="Path 163" d="M10.581,0a.764.764,0,0,1,.54.231c.18.18,1.83,1.989,4.5,9.526,2.753,7.768-13.468,52.084-14.16,53.965A.771.771,0,0,1,.024,63.2c4.662-12.682,16.285-46.91,14.16-52.927-2.558-7.206-4.143-8.95-4.158-8.964a.778.778,0,0,1,0-1.088A.721.721,0,0,1,10.581,0Z" transform="translate(232.066 53.553)" fill="#fff"/>
        <ellipse id="Ellipse_39" data-name="Ellipse 39" cx="11.529" cy="6.867" rx="11.529" ry="6.867" transform="translate(147.029 59.813) rotate(150)" fill="#ffe2bb"/>
        <path id="Path_164" data-name="Path 164" d="M.722.014a.771.771,0,0,1,.612.31C18.528,23.066,36.449,22.591,36.644,22.583a.721.721,0,0,1,.8.721.764.764,0,0,1-.721.8c-.757,0-18.851.562-36.57-22.872A.771.771,0,0,1,.766,0Z" transform="translate(82.94 43.985)" fill="#ffe2bb"/>
        <path id="Path_165" data-name="Path 165" d="M27.707,0a.721.721,0,0,1,.382.108A.771.771,0,0,1,28.37,1.16c-1.52,2.587,1.376,10.953,4.179,19.045,4.324,12.582,8.856,25.6,3.1,29.789C26.374,56.761,1.91,60.176.872,60.321A.767.767,0,0,1,.663,58.8c.252,0,25.12-3.509,34.077-10.045,4.842-3.531.332-16.574-3.646-28.045C27.916,11.515,25.17,3.581,27.037.382A.779.779,0,0,1,27.707,0Z" transform="translate(133.96 23.679)" fill="#fff"/>
        <path id="Path_166" data-name="Path 166" d="M48.551,0a.764.764,0,0,1,.721.447c.18.389.4.807.627,1.247.865,1.672,1.845,3.6,1.744,5.376-.216,3.862-5.477,4.093-8.006,4.2h-.231c-4.554.2-9.058.591-13.77,1.211C21.565,13.533,11.008,15.212.977,18.9A.771.771,0,0,1,.444,17.46c10.175-3.747,20.839-5.448,29-6.485,4.749-.62,9.3-1.016,13.893-1.218h.18C45.6,9.664,49.92,9.483,50.057,7c.072-1.384-.8-3.084-1.578-4.59-.238-.454-.461-.894-.649-1.3A.757.757,0,0,1,48.2.094.721.721,0,0,1,48.551,0Z" transform="translate(131.851 76.151)" fill="#7c675d"/>
        <path id="Path_167" data-name="Path 167" d="M.1,6.109C-.51,3.868,1.825,1.288,5.313.344s6.8.123,7.4,2.364S10.984,7.536,7.5,8.472.7,8.357.1,6.109Z" transform="translate(107.267 134.752)" fill="#fff" opacity="0.9"/>
        <path id="Path_168" data-name="Path 168" d="M.763,0a.771.771,0,0,1,.721.425c.043.094,5.008,9.807,12.632,9.807H57.668a.771.771,0,0,1,0,1.535H14.087C5.512,11.768.295,1.55.079,1.11A.778.778,0,0,1,.417.08.864.864,0,0,1,.763,0Z" transform="translate(43.958 131.24)" fill="#fff" opacity="0.6"/>
        <path id="Path_169" data-name="Path 169" d="M0,9.072H49.822L48.28,13.626,61.906,0H2.832Z" transform="translate(51.683 106.273)" fill="#fff"/>
        <path id="Path_170" data-name="Path 170" d="M2.9,9.072,5.729,0h-2.9L0,9.072Z" transform="translate(47.842 106.273)" fill="#fff"/>
        <path id="Path_171" data-name="Path 171" d="M2.133,9.072,4.958,0H2.832L0,9.072Z" transform="translate(44.765 106.273)" fill="#fff"/>
        <path id="Path_172" data-name="Path 172" d="M1.362,9.072,4.187,0H2.825L0,9.072Z" transform="translate(40.924 106.273)" fill="#fff"/>
        <path id="Path_173" data-name="Path 173" d="M.591,9.072,3.423,0h-.6L0,9.072Z" transform="translate(37.084 106.273)" fill="#fff"/>
        <path id="Path_174" data-name="Path 174" d="M.838,0H54.882L42.805,12.077l1.369-4.043H.218C-.128,5.635-.157,2.162.838,0Z" transform="translate(69.213 31.605)" fill="#404041"/>
        <path id="Path_175" data-name="Path 175" d="M2.805,9.333V9.78a4.893,4.893,0,0,0,9.778,0,.455.455,0,0,0,0-.1A4.886,4.886,0,1,0,8.26,1.356a4.886,4.886,0,1,0-5.4,7.977Z" transform="translate(27.613 34.342)" fill="#eee"/>
        <path id="Path_176" data-name="Path 176" d="M1.439,20.7a7.869,7.869,0,0,0,10.967,1.888l.123-.094A7.869,7.869,0,1,0,19.44,9.051a7.869,7.869,0,1,0-15.507.3c-.2.122-.4.245-.605.382A7.876,7.876,0,0,0,1.439,20.7Z" transform="translate(7.541 45.447)" fill="#eee"/>
        <path id="Path_177" data-name="Path 177" d="M1.119,5.805c-.043.094-.086.18-.123.274A3.33,3.33,0,0,0,7.33,8.14V8.075A3.329,3.329,0,1,0,6.271,1.77,3.329,3.329,0,1,0,1.1,5.805Z" transform="translate(35.381 59.912)" fill="#eee"/>
        <path id="Path_178" data-name="Path 178" d="M7.675,7.833a.2.2,0,0,0,0-.065A3.329,3.329,0,1,0,6.147,1.556,3.329,3.329,0,1,0,1.3,5.967a2.182,2.182,0,0,0-.1.281A3.338,3.338,0,1,0,7.682,7.833Z" transform="translate(51.408 30.488)" fill="#eee"/>
        <path id="Path_179" data-name="Path 179" d="M.028,4.336a1.917,1.917,0,0,0,2.162,1.6,1.888,1.888,0,0,0,1.225-.721A1.917,1.917,0,1,0,5.021,1.793V1.62a1.919,1.919,0,0,0-3.79.6h0A1.924,1.924,0,0,0,.028,4.336Z" transform="translate(36.559 25.417)" fill="#eee"/>
        <path id="Path_180" data-name="Path 180" d="M.026,4.251a1.924,1.924,0,0,0,2.2,1.593,1.888,1.888,0,0,0,1.225-.721,1.917,1.917,0,1,0,1.6-3.416,1.4,1.4,0,0,0,0-.173,1.924,1.924,0,0,0-3.8.591h0A1.931,1.931,0,0,0,.027,4.251Z" transform="translate(17.205 81.146)" fill="#eee"/>
        <path id="Path_181" data-name="Path 181" d="M1.595.027A1.924,1.924,0,0,0,.773,3.465a1.9,1.9,0,0,0-.3,1.391,1.917,1.917,0,0,0,3.747.159,1.382,1.382,0,0,0,.173,0,1.919,1.919,0,1,0-.648-3.783H3.706A1.917,1.917,0,0,0,1.595.027Z" transform="translate(0 40.47)" fill="#eee"/>
        <path id="Path_182" data-name="Path 182" d="M1.629,5.866A1.924,1.924,0,0,0,4.3,5.34a1.881,1.881,0,0,0,.288-1.4A1.917,1.917,0,1,0,3.143.44C3.092.4,3.056.361,3.006.332A1.925,1.925,0,1,0,.844,3.517h0a1.931,1.931,0,0,0,.786,2.349Z" transform="translate(50.5 41.671)" fill="#eee"/>
      </g>
    </g>
    <g id="Group_1398" data-name="Group 1398" transform="translate(27.092 233.388)">
      <ellipse id="Ellipse_402" data-name="Ellipse 402" cx="21.159" cy="3.724" rx="21.159" ry="3.724" transform="translate(21.868 106.029)" fill="#fff" opacity="0.5"/>
      <g id="placeholder_4_" data-name="placeholder (4)" transform="translate(0 0)">
        <path id="Path_1249" data-name="Path 1249" d="M118.5,13.444c-17.009-17.925-44.486-17.925-61.277,0a47.238,47.238,0,0,0,0,64.575l30.529,32.4,30.529-32.173C135.292,60.324,135.292,31.368,118.5,13.444Z" transform="translate(-44.467 0)" fill="#ef1c23"/>
        <path id="Path_1250" data-name="Path 1250" d="M143.336,70.933a29,29,0,1,0,29,29A28.99,28.99,0,0,0,143.336,70.933Z" transform="translate(-100.05 -56.432)" fill="#f3f3f3"/>
        <path id="Path_1251" data-name="Path 1251" d="M192.555,112.533,176.2,128.67V152h32.71V128.67Z" transform="translate(-149.269 -87.54)" fill="#ffb300"/>
        <g id="Group_1261" data-name="Group 1261" transform="translate(22.134 22.455)">
          <rect id="Rectangle_1565" data-name="Rectangle 1565" width="11.121" height="13.084" transform="translate(15.701 28.785)" fill="#435b6c"/>
          <path id="Path_1252" data-name="Path 1252" d="M194.383,120.208,175.63,101.454a2.649,2.649,0,0,0-3.489,0l-18.754,18.754a2.467,2.467,0,0,0,3.489,3.489l17.009-17.227,17.009,17.009a2.653,2.653,0,0,0,3.489,0A2.371,2.371,0,0,0,194.383,120.208Z" transform="translate(-152.733 -100.8)" fill="#435b6c"/>
        </g>
      </g>
    </g>
  </g>
</svg>
