<svg width="66" height="66" viewBox="0 0 66 66" fill="none" xmlns="http://www.w3.org/2000/svg">
<path d="M60.0066 0.0793457H5.00659C2.24517 0.0793457 0.0065918 2.31792 0.0065918 5.07935V60.0793C0.0065918 62.8408 2.24517 65.0793 5.00659 65.0793H60.0066C62.768 65.0793 65.0066 62.8408 65.0066 60.0793V5.07935C65.0066 2.31792 62.768 0.0793457 60.0066 0.0793457Z" fill="#F1F1F1"/>
<path d="M23.3626 44.6895C20.3056 44.6895 17.0566 45.7004 17.0566 47.5754C17.0566 49.4504 20.3056 50.4615 23.3626 50.4615C26.4196 50.4615 29.6686 49.4504 29.6686 47.5754C29.6686 45.7004 26.4196 44.6895 23.3626 44.6895Z" fill="#D9D9D9"/>
<path d="M23.3626 25.0134C20.9977 25.0161 18.7304 25.9567 17.0582 27.629C15.3859 29.3012 14.4453 31.5685 14.4426 33.9334C14.4426 36.9874 15.8956 40.2704 18.7606 43.6924C20.0455 45.2304 21.4777 46.6391 23.0366 47.8984C23.1301 47.9707 23.245 48.0099 23.3631 48.0099C23.4813 48.0099 23.5961 47.9707 23.6896 47.8984C25.2486 46.6391 26.6807 45.2304 27.9656 43.6924C30.8306 40.2704 32.2836 36.9874 32.2836 33.9334C32.281 31.5683 31.3402 29.3009 29.6677 27.6286C27.9953 25.9563 25.7277 25.0158 23.3626 25.0134V25.0134ZM26.7076 33.9334C26.7076 34.595 26.5114 35.2417 26.1439 35.7918C25.7763 36.3419 25.2539 36.7706 24.6427 37.0238C24.0315 37.277 23.3589 37.3432 22.71 37.2142C22.0612 37.0851 21.4652 36.7665 20.9974 36.2987C20.5295 35.8309 20.211 35.2349 20.0819 34.586C19.9528 33.9371 20.0191 33.2646 20.2723 32.6534C20.5254 32.0421 20.9542 31.5197 21.5042 31.1522C22.0543 30.7846 22.701 30.5884 23.3626 30.5884C23.8023 30.588 24.2378 30.6743 24.6441 30.8424C25.0504 31.0104 25.4196 31.2569 25.7305 31.5678C26.0415 31.8787 26.2881 32.2478 26.4563 32.6541C26.6245 33.0603 26.7109 33.4957 26.7106 33.9354L26.7076 33.9334Z" fill="#707070"/>
<path d="M47.1496 29.7695C44.9886 29.0108 42.6336 29.0108 40.4726 29.7695C39.4206 30.1985 38.8406 30.8275 38.8406 31.5415C38.8406 32.2555 39.4196 32.8855 40.4726 33.3135C42.6336 34.0722 44.9886 34.0722 47.1496 33.3135C48.2016 32.8845 48.7816 32.2555 48.7816 31.5415C48.7816 30.8275 48.2016 30.1985 47.1496 29.7695Z" fill="#D9D9D9"/>
<path d="M23.3626 49.1282C20.6906 49.1282 17.8716 48.3552 17.2046 46.9082C17.1072 47.1167 17.0567 47.344 17.0566 47.5742C17.0566 49.4482 20.3056 50.4602 23.3626 50.4602C26.4196 50.4602 29.6686 49.4482 29.6686 47.5742C29.6685 47.344 29.618 47.1167 29.5206 46.9082C28.8536 48.3552 26.0326 49.1282 23.3626 49.1282Z" fill="#BFBFBF"/>
<path d="M47.1496 31.9812C44.9886 32.74 42.6336 32.74 40.4726 31.9812C39.8804 31.7828 39.3705 31.3939 39.0226 30.8752C38.9047 31.0775 38.842 31.3072 38.8406 31.5412C38.8406 32.2552 39.4196 32.8852 40.4726 33.3132C42.6336 34.072 44.9886 34.072 47.1496 33.3132C48.2016 32.8842 48.7805 32.2552 48.7805 31.5412C48.7791 31.3072 48.7164 31.0775 48.5986 30.8752C48.2509 31.3937 47.7414 31.7826 47.1496 31.9812V31.9812Z" fill="#BFBFBF"/>
<path d="M43.8115 14.0793C41.9612 14.0815 40.1873 14.8174 38.879 16.1258C37.5706 17.4341 36.8346 19.208 36.8325 21.0583C36.8325 23.4353 37.9585 25.9853 40.1795 28.6383C41.1727 29.8271 42.2796 30.9159 43.4845 31.8893C43.578 31.9616 43.6929 32.0008 43.811 32.0008C43.9292 32.0008 44.044 31.9616 44.1375 31.8893C45.3425 30.9159 46.4494 29.8271 47.4425 28.6383C49.6635 25.9853 50.7895 23.4383 50.7895 21.0583C50.7874 19.2082 50.0516 17.4345 48.7434 16.1261C47.4353 14.8178 45.6616 14.0817 43.8115 14.0793V14.0793ZM46.3825 21.0583C46.3825 21.5668 46.2318 22.0639 45.9492 22.4867C45.6667 22.9095 45.2652 23.239 44.7954 23.4336C44.3256 23.6282 43.8087 23.6791 43.31 23.5799C42.8112 23.4807 42.3531 23.2359 41.9936 22.8763C41.634 22.5168 41.3891 22.0586 41.2899 21.5599C41.1907 21.0612 41.2417 20.5443 41.4362 20.0745C41.6308 19.6047 41.9603 19.2031 42.3831 18.9206C42.8059 18.6381 43.303 18.4873 43.8115 18.4873C44.4934 18.4873 45.1474 18.7582 45.6295 19.2404C46.1117 19.7225 46.3825 20.3765 46.3825 21.0583V21.0583Z" fill="#707070"/>
<path d="M23.3626 25.0134C23.0285 25.0138 22.6946 25.0328 22.3626 25.0704C24.5392 25.3201 26.5482 26.361 28.0075 27.9951C29.4668 29.6292 30.2747 31.7426 30.2776 33.9334C30.2776 36.9874 28.8246 40.2704 25.9596 43.6924C24.8585 45.0016 23.6547 46.2208 22.3596 47.3384C22.7596 47.6804 23.0086 47.8764 23.0376 47.8984C23.1311 47.9707 23.246 48.0099 23.3641 48.0099C23.4823 48.0099 23.5971 47.9707 23.6906 47.8984C25.2496 46.6391 26.6817 45.2304 27.9666 43.6924C30.8316 40.2704 32.2846 36.9874 32.2846 33.9334C32.282 31.5682 31.3411 29.3006 29.6684 27.6283C27.9957 25.956 25.7279 25.0155 23.3626 25.0134V25.0134Z" fill="#5B5B5B"/>
<path d="M43.8115 14.0793C43.4769 14.0797 43.1427 14.1041 42.8115 14.1523C44.4702 14.3958 45.9862 15.2272 47.083 16.4951C48.1798 17.763 48.7844 19.3829 48.7865 21.0593C48.7865 23.4363 47.6605 25.9863 45.4395 28.6393C44.6327 29.5989 43.7546 30.4961 42.8125 31.3233C43.2125 31.6713 43.4645 31.8703 43.4905 31.8903C43.584 31.9626 43.6989 32.0018 43.817 32.0018C43.9352 32.0018 44.05 31.9626 44.1435 31.8903C45.3485 30.9169 46.4554 29.8281 47.4485 28.6393C49.6695 25.9863 50.7955 23.4393 50.7955 21.0593C50.7937 19.208 50.0571 17.4331 48.7477 16.1244C47.4382 14.8157 45.6629 14.0801 43.8115 14.0793V14.0793Z" fill="#5B5B5B"/>
<path d="M31.6376 48.1084C31.5001 48.1024 31.3702 48.0436 31.275 47.9442C31.1798 47.8448 31.1267 47.7125 31.1267 47.5749C31.1267 47.4372 31.1798 47.3049 31.275 47.2055C31.3702 47.1061 31.5001 47.0473 31.6376 47.0414H32.3376C32.4751 47.0473 32.605 47.1061 32.7002 47.2055C32.7954 47.3049 32.8485 47.4372 32.8485 47.5749C32.8485 47.7125 32.7954 47.8448 32.7002 47.9442C32.605 48.0436 32.4751 48.1024 32.3376 48.1084H31.6376ZM34.4556 48.0954C34.3141 48.0954 34.1784 48.0391 34.0784 47.9391C33.9783 47.839 33.9221 47.7033 33.9221 47.5619C33.9221 47.4204 33.9783 47.2847 34.0784 47.1846C34.1784 47.0846 34.3141 47.0284 34.4556 47.0284H35.1556C35.2931 47.0343 35.423 47.0931 35.5182 47.1925C35.6134 47.2919 35.6665 47.4242 35.6665 47.5619C35.6665 47.6995 35.6134 47.8318 35.5182 47.9312C35.423 48.0306 35.2931 48.0894 35.1556 48.0954H34.4556ZM37.2746 48.0824C37.1371 48.0764 37.0072 48.0176 36.912 47.9182C36.8168 47.8188 36.7637 47.6865 36.7637 47.5489C36.7637 47.4112 36.8168 47.2789 36.912 47.1795C37.0072 47.0801 37.1371 47.0213 37.2746 47.0154H37.9746C38.1121 47.0213 38.242 47.0801 38.3372 47.1795C38.4324 47.2789 38.4855 47.4112 38.4855 47.5489C38.4855 47.6865 38.4324 47.8188 38.3372 47.9182C38.242 48.0176 38.1121 48.0764 37.9746 48.0824H37.2746ZM40.0936 48.0694C39.9561 48.0634 39.8262 48.0046 39.731 47.9052C39.6358 47.8058 39.5827 47.6735 39.5827 47.5359C39.5827 47.3982 39.6358 47.2659 39.731 47.1665C39.8262 47.0671 39.9561 47.0083 40.0936 47.0024H40.7936C40.9311 47.0083 41.061 47.0671 41.1562 47.1665C41.2514 47.2659 41.3045 47.3982 41.3045 47.5359C41.3045 47.6735 41.2514 47.8058 41.1562 47.9052C41.061 48.0046 40.9311 48.0634 40.7936 48.0694H40.0936ZM42.9116 48.0564C42.7741 48.0504 42.6442 47.9916 42.549 47.8922C42.4538 47.7928 42.4007 47.6605 42.4007 47.5229C42.4007 47.3852 42.4538 47.2529 42.549 47.1535C42.6442 47.0541 42.7741 46.9953 42.9116 46.9894H43.6116C43.7491 46.9953 43.879 47.0541 43.9742 47.1535C44.0694 47.2529 44.1225 47.3852 44.1225 47.5229C44.1225 47.6605 44.0694 47.7928 43.9742 47.8922C43.879 47.9916 43.7491 48.0504 43.6116 48.0564H42.9116ZM45.7306 48.0434C45.5931 48.0374 45.4632 47.9786 45.368 47.8792C45.2728 47.7798 45.2197 47.6475 45.2197 47.5099C45.2197 47.3722 45.2728 47.2399 45.368 47.1405C45.4632 47.0411 45.5931 46.9823 45.7306 46.9764H45.8306C46.0086 46.9755 46.1863 46.9628 46.3626 46.9384C46.4997 46.9253 46.6365 46.9658 46.7445 47.0512C46.8525 47.1366 46.9233 47.2605 46.9421 47.3969C46.9609 47.5333 46.9264 47.6717 46.8456 47.7832C46.7648 47.8947 46.6441 47.9707 46.5086 47.9954C46.2856 48.0262 46.0607 48.0422 45.8356 48.0434H45.7356H45.7306ZM48.3846 47.2434C48.2714 47.2422 48.1615 47.2051 48.0708 47.1374C47.98 47.0698 47.9132 46.975 47.8798 46.8669C47.8464 46.7587 47.8483 46.6428 47.8851 46.5357C47.9219 46.4287 47.9918 46.3361 48.0846 46.2714C48.2552 46.1533 48.4163 46.0223 48.5666 45.8794C48.6704 45.79 48.8045 45.744 48.9413 45.7507C49.078 45.7575 49.207 45.8165 49.3015 45.9156C49.396 46.0147 49.4488 46.1463 49.449 46.2833C49.4492 46.4202 49.3968 46.552 49.3026 46.6514C49.1125 46.8336 48.9086 47.0007 48.6926 47.1514C48.6018 47.2119 48.4947 47.2429 48.3856 47.2404L48.3846 47.2434ZM50.0716 45.0434C49.9864 45.0429 49.9024 45.022 49.8269 44.9824C49.7514 44.9428 49.6864 44.8858 49.6375 44.816C49.5885 44.7462 49.557 44.6657 49.5456 44.5812C49.5341 44.4967 49.543 44.4107 49.5716 44.3304C49.6412 44.1349 49.6954 43.9343 49.7336 43.7304C49.7601 43.5914 49.8408 43.4686 49.9578 43.3891C50.0748 43.3096 50.2186 43.2798 50.3576 43.3064C50.4966 43.3329 50.6193 43.4135 50.6988 43.5305C50.7784 43.6476 50.8081 43.7914 50.7816 43.9304C50.7328 44.1887 50.6639 44.4428 50.5756 44.6904C50.5381 44.7937 50.4695 44.8829 50.3792 44.9458C50.289 45.0086 50.1816 45.042 50.0716 45.0414V45.0434ZM50.1576 42.2724C50.042 42.2721 49.9295 42.2344 49.8372 42.1648C49.7449 42.0952 49.6776 41.9975 49.6456 41.8864C49.5882 41.6873 49.5153 41.493 49.4276 41.3054C49.3749 41.1782 49.3733 41.0357 49.4231 40.9074C49.473 40.7791 49.5704 40.675 49.6952 40.6168C49.8199 40.5587 49.9623 40.5509 50.0926 40.5951C50.2229 40.6394 50.3311 40.7323 50.3946 40.8544C50.5058 41.0928 50.5981 41.3395 50.6706 41.5924C50.6934 41.6718 50.6974 41.7555 50.6823 41.8367C50.6672 41.918 50.6335 41.9947 50.5838 42.0607C50.534 42.1267 50.4697 42.1803 50.3957 42.2172C50.3218 42.2541 50.2403 42.2733 50.1576 42.2734V42.2724ZM48.6106 39.9724C48.4908 39.9724 48.3745 39.9318 48.2806 39.8574C48.1178 39.7288 47.9453 39.6132 47.7646 39.5114C47.6413 39.4419 47.5506 39.3262 47.5125 39.1899C47.4745 39.0536 47.4921 38.9077 47.5616 38.7844C47.6311 38.661 47.7467 38.5704 47.8831 38.5323C48.0194 38.4942 48.1653 38.5119 48.2886 38.5814C48.5172 38.7103 48.7356 38.8567 48.9416 39.0194C49.0282 39.0882 49.0913 39.1823 49.1222 39.2886C49.153 39.3949 49.15 39.5082 49.1137 39.6127C49.0773 39.7173 49.0094 39.8079 48.9193 39.8722C48.8291 39.9364 48.7213 39.9711 48.6106 39.9714V39.9724ZM46.0106 39.0054H45.9856C45.9263 39.0054 45.8663 39.0054 45.8056 39.0054H45.3056C45.2336 39.0085 45.1617 38.997 45.0943 38.9716C45.0268 38.9462 44.9652 38.9074 44.9132 38.8575C44.8611 38.8077 44.8197 38.7478 44.7914 38.6815C44.7631 38.6153 44.7485 38.5439 44.7485 38.4719C44.7485 38.3998 44.7631 38.3285 44.7914 38.2622C44.8197 38.1959 44.8611 38.136 44.9132 38.0862C44.9652 38.0363 45.0268 37.9975 45.0943 37.9721C45.1617 37.9467 45.2336 37.9352 45.3056 37.9384H45.8056C45.8806 37.9384 45.9576 37.9384 46.0326 37.9434C46.1705 37.9515 46.2999 38.0128 46.3936 38.1144C46.4873 38.2159 46.5379 38.3498 46.5349 38.4879C46.532 38.6261 46.4756 38.7576 46.3776 38.8551C46.2796 38.9525 46.1477 39.0081 46.0096 39.0104L46.0106 39.0054ZM43.1916 39.0054H42.4916C42.4196 39.0085 42.3477 38.997 42.2803 38.9716C42.2128 38.9462 42.1512 38.9074 42.0992 38.8575C42.0471 38.8077 42.0057 38.7478 41.9774 38.6815C41.9491 38.6153 41.9345 38.5439 41.9345 38.4719C41.9345 38.3998 41.9491 38.3285 41.9774 38.2622C42.0057 38.1959 42.0471 38.136 42.0992 38.0862C42.1512 38.0363 42.2128 37.9975 42.2803 37.9721C42.3477 37.9467 42.4196 37.9352 42.4916 37.9384H43.1916C43.2636 37.9352 43.3355 37.9467 43.4029 37.9721C43.4704 37.9975 43.532 38.0363 43.584 38.0862C43.6361 38.136 43.6775 38.1959 43.7058 38.2622C43.7341 38.3285 43.7487 38.3998 43.7487 38.4719C43.7487 38.5439 43.7341 38.6153 43.7058 38.6815C43.6775 38.7478 43.6361 38.8077 43.584 38.8575C43.532 38.9074 43.4704 38.9462 43.4029 38.9716C43.3355 38.997 43.2636 39.0085 43.1916 39.0054V39.0054ZM40.3726 39.0054H39.6726C39.6006 39.0085 39.5287 38.997 39.4613 38.9716C39.3938 38.9462 39.3322 38.9074 39.2802 38.8575C39.2281 38.8077 39.1867 38.7478 39.1584 38.6815C39.1301 38.6153 39.1155 38.5439 39.1155 38.4719C39.1155 38.3998 39.1301 38.3285 39.1584 38.2622C39.1867 38.1959 39.2281 38.136 39.2802 38.0862C39.3322 38.0363 39.3938 37.9975 39.4613 37.9721C39.5287 37.9467 39.6006 37.9352 39.6726 37.9384H40.3726C40.4446 37.9352 40.5165 37.9467 40.5839 37.9721C40.6514 37.9975 40.713 38.0363 40.765 38.0862C40.8171 38.136 40.8585 38.1959 40.8868 38.2622C40.9151 38.3285 40.9297 38.3998 40.9297 38.4719C40.9297 38.5439 40.9151 38.6153 40.8868 38.6815C40.8585 38.7478 40.8171 38.8077 40.765 38.8575C40.713 38.9074 40.6514 38.9462 40.5839 38.9716C40.5165 38.997 40.4446 39.0085 40.3726 39.0054V39.0054ZM37.5536 39.0054H36.8536C36.7816 39.0085 36.7097 38.997 36.6423 38.9716C36.5748 38.9462 36.5132 38.9074 36.4612 38.8575C36.4091 38.8077 36.3677 38.7478 36.3394 38.6815C36.3111 38.6153 36.2965 38.5439 36.2965 38.4719C36.2965 38.3998 36.3111 38.3285 36.3394 38.2622C36.3677 38.1959 36.4091 38.136 36.4612 38.0862C36.5132 38.0363 36.5748 37.9975 36.6423 37.9721C36.7097 37.9467 36.7816 37.9352 36.8536 37.9384H37.5536C37.6911 37.9443 37.821 38.0031 37.9162 38.1025C38.0114 38.2019 38.0645 38.3342 38.0645 38.4719C38.0645 38.6095 38.0114 38.7418 37.9162 38.8412C37.821 38.9406 37.6911 38.9994 37.5536 39.0054V39.0054ZM34.8356 38.4744C34.7351 38.4745 34.6366 38.446 34.5516 38.3924C34.3223 38.2477 34.1082 38.0802 33.9126 37.8924C33.8106 37.7942 33.7518 37.6596 33.7491 37.5181C33.7464 37.3766 33.8 37.2398 33.8981 37.1379C33.9962 37.0359 34.1309 36.9771 34.2724 36.9743C34.4139 36.9716 34.5506 37.0252 34.6526 37.1234C34.7958 37.2612 34.9526 37.3842 35.1206 37.4904C35.2189 37.5518 35.2946 37.6436 35.336 37.7519C35.3774 37.8603 35.3824 37.9791 35.3502 38.0905C35.3179 38.2019 35.2503 38.2997 35.1574 38.3692C35.0645 38.4386 34.9516 38.4759 34.8356 38.4754V38.4744ZM33.2846 36.2144C33.161 36.2141 33.0413 36.1711 32.946 36.0925C32.8506 36.0139 32.7854 35.9046 32.7616 35.7834C32.7125 35.531 32.6877 35.2745 32.6876 35.0174V34.9754C32.6894 34.8351 32.7464 34.7012 32.8461 34.6026C32.9458 34.504 33.0804 34.4486 33.2206 34.4484H33.2266C33.2967 34.4491 33.3659 34.4637 33.4304 34.4913C33.4948 34.5189 33.5531 34.5589 33.6021 34.6091C33.651 34.6592 33.6896 34.7185 33.7156 34.7836C33.7416 34.8487 33.7545 34.9183 33.7536 34.9884V35.0184C33.7536 35.207 33.7717 35.3952 33.8076 35.5804C33.8226 35.6577 33.8204 35.7373 33.801 35.8137C33.7817 35.89 33.7457 35.9611 33.6956 36.0219C33.6455 36.0827 33.5826 36.1317 33.5114 36.1653C33.4401 36.1989 33.3624 36.2163 33.2836 36.2164L33.2846 36.2144ZM33.8676 33.5364C33.7695 33.5362 33.6734 33.509 33.5897 33.4577C33.5061 33.4065 33.4382 33.3332 33.3935 33.2459C33.3487 33.1586 33.3289 33.0607 33.3362 32.9628C33.3434 32.865 33.3775 32.7711 33.4346 32.6914C33.5929 32.471 33.7732 32.2673 33.9726 32.0834C34.0241 32.0359 34.0844 31.999 34.1501 31.9749C34.2159 31.9507 34.2857 31.9397 34.3557 31.9426C34.4256 31.9454 34.4944 31.962 34.5579 31.9914C34.6215 32.0208 34.6786 32.0624 34.7261 32.1139C34.7736 32.1653 34.8105 32.2257 34.8346 32.2914C34.8588 32.3571 34.8697 32.427 34.8669 32.4969C34.8641 32.5669 34.8475 32.6356 34.8181 32.6992C34.7887 32.7627 34.7471 32.8199 34.6956 32.8674C34.5495 33.0023 34.4175 33.1518 34.3016 33.3134C34.2519 33.3802 34.1872 33.4345 34.1127 33.4719C34.0382 33.5092 33.9559 33.5286 33.8726 33.5284L33.8676 33.5364ZM36.2166 32.1244C36.0827 32.122 35.9545 32.0695 35.8575 31.9771C35.7606 31.8847 35.7019 31.7592 35.6931 31.6256C35.6842 31.4919 35.726 31.3598 35.81 31.2555C35.894 31.1512 36.0141 31.0822 36.1466 31.0624C36.3223 31.0391 36.4994 31.0274 36.6766 31.0274H36.9206C36.9926 31.0242 37.0645 31.0357 37.1319 31.0611C37.1994 31.0865 37.261 31.1253 37.313 31.1752C37.3651 31.225 37.4065 31.2849 37.4348 31.3512C37.4631 31.4175 37.4777 31.4888 37.4777 31.5609C37.4777 31.6329 37.4631 31.7043 37.4348 31.7705C37.4065 31.8368 37.3651 31.8967 37.313 31.9465C37.261 31.9964 37.1994 32.0352 37.1319 32.0606C37.0645 32.086 36.9926 32.0975 36.9206 32.0944H36.6856C36.5555 32.0945 36.4256 32.1032 36.2966 32.1204C36.2712 32.1203 36.2458 32.1183 36.2206 32.1144L36.2166 32.1244Z" fill="#8C8C8C"/>
</svg>
