<svg width="59" height="58" viewBox="0 0 59 58" fill="none" xmlns="http://www.w3.org/2000/svg">
<path d="M44.5066 1.89335V39.0533C44.5067 39.2916 44.4599 39.5275 44.3688 39.7477C44.2777 39.9678 44.144 40.1679 43.9756 40.3363C43.8071 40.5048 43.6071 40.6384 43.3869 40.7295C43.1668 40.8206 42.9308 40.8675 42.6926 40.8673H1.81959C1.58134 40.8673 1.34542 40.8204 1.12533 40.7292C0.905232 40.6379 0.705279 40.5042 0.536901 40.3356C0.368522 40.1671 0.235019 39.967 0.144025 39.7468C0.0530308 39.5266 0.00633007 39.2906 0.0065929 39.0523V1.89335C0.00646153 1.65518 0.0532592 1.41932 0.144312 1.19924C0.235365 0.979159 0.368889 0.779178 0.537255 0.610719C0.70562 0.44226 0.905528 0.308626 1.12556 0.217452C1.34559 0.126278 1.58142 0.0793501 1.81959 0.0793501H42.6896C42.9281 0.0788239 43.1644 0.125363 43.3849 0.216302C43.6053 0.307241 43.8057 0.440791 43.9745 0.609302C44.1433 0.777813 44.2772 0.977973 44.3685 1.19831C44.4598 1.41865 44.5067 1.65484 44.5066 1.89335Z" fill="#DBDBDB"/>
<path d="M44.5036 1.89335V39.0533C44.5037 39.2916 44.4569 39.5275 44.3658 39.7477C44.2747 39.9678 44.1411 40.1679 43.9726 40.3363C43.8041 40.5048 43.6041 40.6384 43.384 40.7295C43.1638 40.8206 42.9279 40.8675 42.6896 40.8673H22.2556V0.079346H42.6876C42.9259 0.0792145 43.1618 0.126045 43.382 0.217161C43.6021 0.308276 43.8021 0.44189 43.9706 0.610361C44.1391 0.778833 44.2727 0.978859 44.3638 1.199C44.4549 1.41915 44.5017 1.65509 44.5016 1.89335H44.5036Z" fill="#C5C5C5"/>
<path d="M28.7875 0.0793457V18.0233C28.7891 18.133 28.7607 18.2411 28.7052 18.3357C28.6497 18.4303 28.5694 18.5079 28.4729 18.5601C28.3764 18.6123 28.2675 18.637 28.1579 18.6316C28.0483 18.6261 27.9424 18.5908 27.8515 18.5293L22.9165 15.2983C22.7202 15.1685 22.4899 15.0992 22.2545 15.0992C22.0191 15.0992 21.7889 15.1685 21.5925 15.2983L16.6575 18.5293C16.5666 18.5908 16.4607 18.6261 16.3511 18.6316C16.2415 18.637 16.1326 18.6123 16.0361 18.5601C15.9396 18.5079 15.8593 18.4303 15.8038 18.3357C15.7483 18.2411 15.7199 18.133 15.7215 18.0233V0.0793457H28.7875Z" fill="#949494"/>
<path d="M28.7876 0.0793457V18.0233C28.7892 18.133 28.7608 18.2411 28.7053 18.3357C28.6499 18.4303 28.5695 18.5079 28.473 18.5601C28.3765 18.6123 28.2676 18.637 28.158 18.6316C28.0485 18.6261 27.9425 18.5908 27.8516 18.5293L22.9166 15.2983C22.7205 15.1686 22.4907 15.0991 22.2556 15.0983V0.0793457H28.7876Z" fill="#808080"/>
<path d="M58.9777 35.1313C58.9777 40.3313 51.3147 52.6393 48.4607 57.0413C48.3469 57.2174 48.1908 57.3621 48.0067 57.4623C47.8226 57.5625 47.6163 57.6151 47.4067 57.6151C47.1971 57.6151 46.9908 57.5625 46.8067 57.4623C46.6226 57.3621 46.4665 57.2174 46.3527 57.0413C43.4997 52.6413 35.8357 40.3333 35.8357 35.1313C35.8357 32.0624 37.0548 29.1191 39.2249 26.949C41.395 24.7789 44.3382 23.5598 47.4072 23.5598C50.4761 23.5598 53.4194 24.7789 55.5895 26.949C57.7596 29.1191 58.9787 32.0624 58.9787 35.1313H58.9777Z" fill="#949494"/>
<path d="M58.9787 35.1303C58.9787 40.3303 51.3157 52.6383 48.4617 57.0403C48.3487 57.2171 48.1928 57.3625 48.0085 57.4628C47.8242 57.5632 47.6176 57.6153 47.4077 57.6143V23.5603C48.9272 23.5602 50.4318 23.8593 51.8357 24.4407C53.2395 25.0221 54.5151 25.8743 55.5896 26.9487C56.664 28.0231 57.5164 29.2986 58.0979 30.7024C58.6794 32.1062 58.9787 33.6108 58.9787 35.1303V35.1303Z" fill="#808080"/>
<path d="M52.2597 34.3952C52.2597 35.3551 51.9751 36.2934 51.4418 37.0914C50.9086 37.8895 50.1506 38.5115 49.2639 38.8788C48.3771 39.2461 47.4013 39.3423 46.46 39.155C45.5186 38.9677 44.6538 38.5055 43.9751 37.8268C43.2964 37.1481 42.8342 36.2834 42.647 35.342C42.4597 34.4006 42.5558 33.4249 42.9231 32.5381C43.2904 31.6513 43.9125 30.8934 44.7105 30.3601C45.5086 29.8269 46.4469 29.5422 47.4067 29.5422C48.6938 29.5422 49.9282 30.0535 50.8383 30.9637C51.7484 31.8738 52.2597 33.1081 52.2597 34.3952V34.3952Z" fill="#F0F0F0"/>
<path d="M52.2597 34.3953C52.2597 35.6824 51.7484 36.9168 50.8383 37.8269C49.9282 38.737 48.6938 39.2483 47.4067 39.2483V29.5403C48.0442 29.5403 48.6754 29.6659 49.2643 29.9099C49.8533 30.1539 50.3884 30.5115 50.839 30.9624C51.2897 31.4133 51.6471 31.9485 51.8909 32.5375C52.1347 33.1265 52.26 33.7578 52.2597 34.3953V34.3953Z" fill="#DCDCDC"/>
</svg>
