<svg width="66" height="66" viewBox="0 0 66 66" fill="none" xmlns="http://www.w3.org/2000/svg">
<path d="M60.0066 0.0793457H5.00659C2.24517 0.0793457 0.0065918 2.31792 0.0065918 5.07935V60.0793C0.0065918 62.8408 2.24517 65.0793 5.00659 65.0793H60.0066C62.768 65.0793 65.0066 62.8408 65.0066 60.0793V5.07935C65.0066 2.31792 62.768 0.0793457 60.0066 0.0793457Z" fill="#F1F1F1"/>
<path d="M54.8035 41.1624H21.3035V34.6974C21.3035 34.4967 21.3832 34.3041 21.5252 34.1622C21.6672 34.0202 21.8597 33.9404 22.0605 33.9404H54.8065C55.0072 33.9404 55.1998 34.0202 55.3417 34.1622C55.4837 34.3041 55.5635 34.4967 55.5635 34.6974V40.4064C55.5635 40.6072 55.4837 40.7997 55.3417 40.9417C55.1998 41.0837 55.0072 41.1634 54.8065 41.1634L54.8035 41.1624Z" fill="#6D6D6D"/>
<path d="M54.8047 41.1624H52.9678V33.9404H54.8008C55.0015 33.9404 55.1941 34.0202 55.336 34.1622C55.478 34.3041 55.5578 34.4967 55.5578 34.6974V40.4064C55.5575 40.6063 55.4782 40.798 55.3371 40.9397C55.196 41.0813 55.0047 41.1614 54.8047 41.1624Z" fill="#3B3B3B"/>
<path d="M41.9726 36.6694H34.8906C34.759 36.674 34.6285 36.6451 34.5111 36.5855C34.3938 36.5258 34.2935 36.4374 34.2196 36.3284L32.7876 33.9404H44.0756L42.6436 36.3284C42.5697 36.4374 42.4694 36.5258 42.3521 36.5855C42.2347 36.6451 42.1042 36.674 41.9726 36.6694V36.6694Z" fill="#F1F1F1"/>
<path d="M44.0754 33.9404L42.6434 36.3284C42.5696 36.4375 42.4693 36.526 42.352 36.5856C42.2346 36.6452 42.104 36.6741 41.9724 36.6694H40.1184C40.25 36.6741 40.3806 36.6452 40.498 36.5856C40.6153 36.526 40.7156 36.4375 40.7894 36.3284L42.2214 33.9404H44.0754Z" fill="#D6D6D6"/>
<path d="M55.9395 34.0233H23.1935C22.9929 34.023 22.8006 33.9432 22.6589 33.8012C22.5171 33.6593 22.4375 33.4669 22.4375 33.2663V27.5573C22.4375 27.4579 22.4571 27.3594 22.4951 27.2676C22.5332 27.1758 22.5889 27.0923 22.6592 27.022C22.7295 26.9517 22.813 26.896 22.9048 26.8579C22.9967 26.8199 23.0951 26.8003 23.1945 26.8003H55.9405C56.0399 26.8003 56.1383 26.8199 56.2302 26.8579C56.322 26.896 56.4055 26.9517 56.4758 27.022C56.5461 27.0923 56.6018 27.1758 56.6399 27.2676C56.6779 27.3594 56.6975 27.4579 56.6975 27.5573V33.2663C56.6975 33.3657 56.6779 33.4641 56.6399 33.556C56.6018 33.6478 56.5461 33.7313 56.4758 33.8016C56.4055 33.8719 56.322 33.9276 56.2302 33.9657C56.1383 34.0037 56.0399 34.0233 55.9405 34.0233H55.9395Z" fill="#6D6D6D"/>
<path d="M55.9404 34.0233H54.1074V26.8013H55.9404C56.1412 26.8013 56.3337 26.881 56.4757 27.023C56.6176 27.165 56.6974 27.3575 56.6974 27.5583V33.2673C56.6974 33.468 56.6176 33.6606 56.4757 33.8026C56.3337 33.9445 56.1412 34.0243 55.9404 34.0243V34.0233Z" fill="#3B3B3B"/>
<path d="M43.1085 29.5303H36.0305C35.8989 29.5348 35.7684 29.506 35.651 29.4463C35.5336 29.3867 35.4333 29.2982 35.3595 29.1893L33.9275 26.8013H45.2105L43.7785 29.1893C43.7047 29.2983 43.6044 29.3868 43.487 29.4464C43.3697 29.5061 43.2391 29.5349 43.1075 29.5303H43.1085Z" fill="#F1F1F1"/>
<path d="M45.2075 26.8013L43.7755 29.1893C43.7017 29.2983 43.6014 29.3868 43.484 29.4464C43.3666 29.5061 43.236 29.5349 43.1045 29.5303H41.2505C41.382 29.5348 41.5126 29.506 41.6299 29.4463C41.7473 29.3867 41.8476 29.2982 41.9215 29.1893L43.3535 26.8013H45.2075Z" fill="#D6D6D6"/>
<path d="M52.2144 26.8013H19.4684C19.2677 26.8013 19.0751 26.7216 18.9331 26.5796C18.7912 26.4377 18.7114 26.2451 18.7114 26.0443V20.3363C18.7114 20.1356 18.7912 19.943 18.9331 19.8011C19.0751 19.6591 19.2677 19.5793 19.4684 19.5793H52.2144C52.4152 19.5793 52.6077 19.6591 52.7497 19.8011C52.8917 19.943 52.9714 20.1356 52.9714 20.3363V26.0443C52.9714 26.2451 52.8917 26.4377 52.7497 26.5796C52.6077 26.7216 52.4152 26.8013 52.2144 26.8013V26.8013Z" fill="#6D6D6D"/>
<path d="M52.2144 26.8013H50.3813V19.5793H52.2144C52.4151 19.5793 52.6077 19.6591 52.7496 19.8011C52.8916 19.943 52.9714 20.1356 52.9714 20.3363V26.0443C52.9714 26.2451 52.8916 26.4377 52.7496 26.5796C52.6077 26.7216 52.4151 26.8013 52.2144 26.8013V26.8013Z" fill="#3B3B3B"/>
<path d="M39.3836 22.3083H32.3026C32.1711 22.313 32.0405 22.2842 31.9231 22.2245C31.8057 22.1649 31.7054 22.0764 31.6316 21.9673L30.2026 19.5793H41.4906L40.0586 21.9673C39.9848 22.0763 39.8845 22.1648 39.7671 22.2244C39.6498 22.284 39.5192 22.3129 39.3876 22.3083H39.3836Z" fill="#F1F1F1"/>
<path d="M41.4856 19.5793L40.0536 21.9673C39.9798 22.0764 39.8795 22.1649 39.7621 22.2245C39.6447 22.2842 39.5141 22.313 39.3826 22.3083H37.5286C37.6601 22.313 37.7907 22.2842 37.9081 22.2245C38.0255 22.1649 38.1258 22.0764 38.1996 21.9673L39.6316 19.5793H41.4856Z" fill="#D6D6D6"/>
<path d="M41.7144 40.6044C41.7153 41.0998 41.5226 41.576 41.1774 41.9314C38.8465 44.4338 36.0198 46.4231 32.8774 47.7724C31.8356 48.1653 30.7188 48.3194 29.6094 48.2234C27.2564 48.0234 22.6564 47.4424 20.5654 45.8594V44.2194C22.6564 45.8034 27.2564 46.3844 29.6094 46.5844C30.7189 46.6799 31.8356 46.5254 32.8774 46.1324C36.0197 44.7834 38.8464 42.7945 41.1774 40.2924C41.3217 40.144 41.4403 39.9727 41.5284 39.7854C41.6506 40.0412 41.7141 40.321 41.7144 40.6044V40.6044Z" fill="#CBCBCB"/>
<path d="M41.2695 39.3783C41.0117 39.0703 40.6632 38.8515 40.2737 38.7531C39.8843 38.6547 39.4737 38.6817 39.1005 38.8303L34.2565 40.7573C33.5442 41.0408 32.7561 41.0704 32.0245 40.8413L30.5695 40.3853C30.5089 40.3665 30.4551 40.3302 30.415 40.2811C30.3749 40.2319 30.3501 40.172 30.3438 40.1088C30.3375 40.0457 30.35 39.9821 30.3796 39.926C30.4093 39.8699 30.4548 39.8237 30.5105 39.7933L31.8105 39.0813C32.1493 38.8936 32.4071 38.5878 32.5347 38.2221C32.6624 37.8565 32.6509 37.4566 32.5025 37.0989C32.3541 36.7411 32.0792 36.4506 31.7302 36.2826C31.3813 36.1147 30.9827 36.0811 30.6105 36.1883L24.9105 37.8653C23.8836 38.1671 22.8188 38.3203 21.7485 38.3203H20.5745L20.0835 38.2693V45.8593H20.5745C22.6655 47.4423 27.2655 48.0243 29.6185 48.2233C30.7278 48.3193 31.8446 48.1652 32.8865 47.7723C36.0288 46.4234 38.8556 44.4345 41.1865 41.9323C41.5144 41.5932 41.7052 41.1447 41.722 40.6733C41.7388 40.2018 41.5804 39.7409 41.2775 39.3793L41.2695 39.3783Z" fill="#D0D0D0"/>
<path d="M20.2145 46.6113H17.6875V37.8853H20.2145C20.3076 37.8853 20.3969 37.9222 20.4627 37.9881C20.5285 38.0539 20.5655 38.1432 20.5655 38.2363V46.2613C20.5652 46.3542 20.5281 46.4432 20.4623 46.5088C20.3966 46.5744 20.3074 46.6113 20.2145 46.6113V46.6113Z" fill="#F1F1F1"/>
<path d="M20.2145 46.6112H17.6875V43.3972H20.5655V46.2612C20.5652 46.3541 20.5281 46.4431 20.4623 46.5088C20.3966 46.5744 20.3074 46.6112 20.2145 46.6112V46.6112Z" fill="#E4E4E4"/>
<path d="M17.7145 47.4603H11.4275C11.3794 47.4603 11.3317 47.4508 11.2872 47.4324C11.2428 47.4139 11.2024 47.3869 11.1684 47.3528C11.1344 47.3187 11.1074 47.2782 11.0891 47.2337C11.0708 47.1892 11.0614 47.1415 11.0615 47.0934V37.4034C11.0615 37.3063 11.1001 37.2132 11.1687 37.1445C11.2374 37.0759 11.3305 37.0374 11.4275 37.0374H17.7145C17.7627 37.0372 17.8104 37.0466 17.8549 37.0649C17.8994 37.0833 17.9399 37.1102 17.974 37.1442C18.0081 37.1782 18.0351 37.2186 18.0536 37.2631C18.072 37.3075 18.0815 37.3552 18.0815 37.4034V47.0934C18.0815 47.1907 18.0429 47.284 17.974 47.3529C17.9052 47.4217 17.8119 47.4603 17.7145 47.4603V47.4603Z" fill="#C5C5C5"/>
<path d="M17.7145 47.4594H11.4275C11.3305 47.4594 11.2374 47.4209 11.1687 47.3523C11.1001 47.2836 11.0615 47.1905 11.0615 47.0934V43.7935H18.0805V47.0934C18.0805 47.1906 18.042 47.2838 17.9734 47.3526C17.9048 47.4214 17.8117 47.4602 17.7145 47.4604V47.4594Z" fill="#9D9D9D"/>
</svg>
