<svg width="66" height="66" viewBox="0 0 66 66" fill="none" xmlns="http://www.w3.org/2000/svg">
<g clip-path="url(#clip0)">
<path d="M60.0066 0.0793457H5.00659C2.24517 0.0793457 0.0065918 2.31792 0.0065918 5.07935V60.0793C0.0065918 62.8408 2.24517 65.0793 5.00659 65.0793H60.0066C62.768 65.0793 65.0066 62.8408 65.0066 60.0793V5.07935C65.0066 2.31792 62.768 0.0793457 60.0066 0.0793457Z" fill="#F1F1F1"/>
<path d="M49.3806 16.8564V44.5664L46.3647 49.4534H45.1767L42.1606 44.5664V16.8564H49.3806Z" fill="#C5C5C5"/>
<path d="M49.3795 16.8574V44.5664L46.3635 49.4534H45.7695V16.8574H49.3795Z" fill="#A4A4A4"/>
<path d="M15.0066 17.8633H39.7796V49.4523H15.0066V17.8633Z" fill="white"/>
<path d="M27.3936 17.8633H39.7805V49.4523H27.3936V17.8633Z" fill="#F6F6F6"/>
<path d="M21.9805 30.7684L19.7915 28.1484L21.3365 26.8564L22.1885 27.8744L24.2765 26.0034L25.6205 27.5034L21.9805 30.7684Z" fill="#818181"/>
<path d="M27.3936 27.6333H35.1796V29.6473H27.3936V27.6333Z" fill="#7E7E7E"/>
<path d="M21.9805 36.5594L19.7915 33.9424L21.3365 32.6504L22.1885 33.6684L24.2765 31.7974L25.6205 33.2974L21.9805 36.5594Z" fill="#818181"/>
<path d="M27.3936 33.4243H35.1796V35.4383H27.3936V33.4243Z" fill="#7E7E7E"/>
<path d="M21.9805 42.3504L19.7915 39.7334L21.3365 38.4414L22.1885 39.4594L24.2765 37.5884L25.6205 39.0884L21.9805 42.3504Z" fill="#818181"/>
<path d="M27.3936 39.2163H35.1796V41.2303H27.3936V39.2163Z" fill="#7E7E7E"/>
<path d="M19.4675 15.0793H21.4815V20.8133H19.4675V15.0793Z" fill="#A0A0A0"/>
<path d="M24.0796 15.0793H26.0936V20.8133H24.0796V15.0793Z" fill="#A0A0A0"/>
<path d="M28.6926 15.0793H30.7066V20.8133H28.6926V15.0793Z" fill="#7E7E7E"/>
<path d="M33.3047 15.0793H35.3187V20.8133H33.3047V15.0793Z" fill="#7E7E7E"/>
<path d="M49.3806 44.5632L46.3647 49.4502H45.1767L42.1606 44.5632H49.3806Z" fill="#D9D9D9"/>
<path d="M42.1597 16.8564H49.3806V23.2004H42.1597V16.8564Z" fill="#818181"/>
<path d="M45.7695 16.8564H49.3805V23.2004H45.7695V16.8564Z" fill="#333333"/>
<path d="M45.7695 44.5632H49.3805L46.3645 49.4502H45.7705L45.7695 44.5632Z" fill="#BFBFBF"/>
</g>
<defs>
<clipPath id="clip0">
<rect width="65" height="65" fill="white" transform="translate(0.0065918 0.0793457)"/>
</clipPath>
</defs>
</svg>
