<svg width="55" height="50" viewBox="0 0 55 50" fill="none" xmlns="http://www.w3.org/2000/svg">
<g clip-path="url(#clip0)">
<path d="M45.7988 15.4898C45.2986 15.0529 44.8978 14.5139 44.6232 13.9092C44.3486 13.3045 44.2066 12.648 44.2068 11.9838V7.66084C44.2068 7.55578 44.1861 7.45175 44.1459 7.35469C44.1057 7.25763 44.0467 7.16944 43.9724 7.09515C43.8982 7.02087 43.81 6.96194 43.7129 6.92174C43.6159 6.88153 43.5118 6.86084 43.4068 6.86084H38.4528C38.2406 6.86084 38.0371 6.94512 37.8871 7.09515C37.7371 7.24518 37.6528 7.44866 37.6528 7.66084V11.9838C37.6529 12.648 37.511 13.3045 37.2364 13.9092C36.9618 14.5139 36.5609 15.0529 36.0608 15.4898C35.2203 16.224 34.5466 17.1296 34.0851 18.1457C33.6235 19.1618 33.3847 20.2648 33.3848 21.3808V22.3578C33.3848 22.57 33.4691 22.7735 33.6191 22.9235C33.7691 23.0736 33.9726 23.1578 34.1848 23.1578H47.6748C47.7798 23.1578 47.8839 23.1371 47.9809 23.0969C48.078 23.0567 48.1662 22.9978 48.2404 22.9235C48.3147 22.8492 48.3737 22.761 48.4139 22.664C48.4541 22.5669 48.4748 22.4629 48.4748 22.3578V21.3808C48.4748 20.2648 48.236 19.1618 47.7744 18.1457C47.3129 17.1296 46.6392 16.224 45.7988 15.4898V15.4898Z" fill="#A0A0A0"/>
<path d="M45.7985 15.4898C45.2983 15.0529 44.8975 14.5139 44.6229 13.9092C44.3483 13.3045 44.2063 12.648 44.2065 11.9838V7.66084C44.2065 7.44866 44.1222 7.24518 43.9722 7.09515C43.8221 6.94512 43.6187 6.86084 43.4065 6.86084H39.8965C40.1087 6.86084 40.3122 6.94512 40.4622 7.09515C40.6122 7.24518 40.6965 7.44866 40.6965 7.66084V11.9838C40.6963 12.648 40.8383 13.3045 41.1129 13.9092C41.3875 14.5139 41.7883 15.0529 42.2885 15.4898C43.129 16.224 43.8026 17.1296 44.2642 18.1457C44.7257 19.1618 44.9645 20.2648 44.9645 21.3808V22.3578C44.9645 22.4629 44.9438 22.5669 44.9036 22.664C44.8634 22.761 44.8045 22.8492 44.7302 22.9235C44.6559 22.9978 44.5677 23.0567 44.4706 23.0969C44.3736 23.1371 44.2695 23.1578 44.1645 23.1578H47.6745C47.8867 23.1578 48.0901 23.0736 48.2402 22.9235C48.3902 22.7735 48.4745 22.57 48.4745 22.3578V21.3808C48.4745 20.2648 48.2357 19.1618 47.7742 18.1457C47.3126 17.1296 46.639 16.224 45.7985 15.4898V15.4898Z" fill="#8B8B8B"/>
<path d="M51.0547 28.466C50.9797 28.378 50.8865 28.3074 50.7815 28.2589C50.6765 28.2103 50.5623 28.1852 50.4467 28.1851H5.39968C5.28413 28.1855 5.17003 28.2109 5.06524 28.2596C4.96046 28.3083 4.86747 28.3792 4.79268 28.4673C4.71789 28.5554 4.66307 28.6586 4.632 28.7699C4.60093 28.8812 4.59434 28.998 4.61269 29.1121L7.36869 45.8391C7.53654 46.8716 8.0668 47.8106 8.86435 48.4876C9.66191 49.1645 10.6746 49.5352 11.7207 49.5331H44.1277C45.1738 49.5352 46.1865 49.1645 46.984 48.4876C47.7816 47.8106 48.3118 46.8716 48.4797 45.8391L51.2337 29.1121C51.2524 28.9978 51.246 28.8809 51.2151 28.7694C51.1842 28.6579 51.1295 28.5544 51.0547 28.466V28.466Z" fill="#878787"/>
<path d="M51.0555 28.466C50.9805 28.378 50.8873 28.3074 50.7823 28.2589C50.6774 28.2103 50.5632 28.1852 50.4475 28.1851H46.6715C46.7871 28.1855 46.9012 28.2109 47.006 28.2596C47.1108 28.3083 47.2037 28.3792 47.2785 28.4673C47.3533 28.5554 47.4081 28.6586 47.4392 28.7699C47.4703 28.8812 47.4769 28.998 47.4585 29.1121L44.7045 45.8391C44.5367 46.8716 44.0064 47.8106 43.2089 48.4876C42.4113 49.1645 41.3987 49.5352 40.3525 49.5331H44.1295C45.1757 49.5352 46.1883 49.1645 46.9859 48.4876C47.7834 47.8106 48.3137 46.8716 48.4815 45.8391L51.2355 29.1121C51.2541 28.9978 51.2476 28.8808 51.2165 28.7693C51.1854 28.6578 51.1305 28.5543 51.0555 28.466Z" fill="#707070"/>
<path d="M30.2127 2.02565e-05H25.6357C25.1053 2.02565e-05 24.5966 0.210734 24.2215 0.585807C23.8465 0.96088 23.6357 1.46959 23.6357 2.00002V22.358C23.6357 22.5702 23.72 22.7737 23.8701 22.9237C24.0201 23.0737 24.2236 23.158 24.4357 23.158H31.4217C31.6339 23.158 31.8374 23.0737 31.9874 22.9237C32.1375 22.7737 32.2217 22.5702 32.2217 22.358V2.00202C32.222 1.73845 32.1702 1.47743 32.0692 1.23395C31.9683 0.990484 31.8202 0.769369 31.6335 0.583322C31.4468 0.397274 31.2251 0.249963 30.9813 0.14986C30.7375 0.0497563 30.4763 -0.00116595 30.2127 2.02565e-05V2.02565e-05Z" fill="#878787"/>
<path d="M30.2126 0H26.3806C26.911 0 27.4198 0.210714 27.7948 0.585787C28.1699 0.96086 28.3806 1.46957 28.3806 2V22.358C28.3806 22.5702 28.2963 22.7737 28.1463 22.9237C27.9963 23.0737 27.7928 23.158 27.5806 23.158H31.4126C31.6248 23.158 31.8283 23.0737 31.9783 22.9237C32.1283 22.7737 32.2126 22.5702 32.2126 22.358V2.002C32.2129 1.73919 32.1613 1.4789 32.0609 1.23602C31.9606 0.993137 31.8133 0.772424 31.6275 0.586494C31.4418 0.400565 31.2212 0.253068 30.9784 0.152433C30.7357 0.0517989 30.4754 -1.31406e-07 30.2126 0Z" fill="#707070"/>
<path d="M23.6496 21.864L14.0856 9.70902C12.7655 8.03986 10.9379 6.84578 8.87903 6.30725C6.82018 5.76873 4.64198 5.91502 2.67363 6.72402C2.2567 6.89669 1.88543 7.16357 1.58891 7.50376C1.2924 7.84394 1.07871 8.24818 0.964598 8.68478C0.850483 9.12138 0.839043 9.57849 0.931175 10.0203C1.02331 10.462 1.21651 10.8764 1.49563 11.231L10.6376 22.85C10.7128 22.944 10.8083 23.0197 10.9168 23.0717C11.0254 23.1236 11.1443 23.1504 11.2646 23.15H23.0236C23.1728 23.149 23.3187 23.1063 23.4449 23.0268C23.5711 22.9472 23.6726 22.8339 23.7378 22.6998C23.803 22.5656 23.8294 22.4158 23.814 22.2675C23.7986 22.1191 23.742 21.9779 23.6506 21.86L23.6496 21.864Z" fill="#C3C3C3"/>
<path d="M23.6506 21.864L14.0856 9.70902C12.7655 8.03986 10.9379 6.84578 8.87902 6.30725C6.82017 5.76873 4.64196 5.91502 2.67362 6.72402C2.57346 6.76567 2.47565 6.81274 2.38062 6.86502C3.85348 6.87028 5.30622 7.20746 6.63083 7.8515C7.95544 8.49554 9.11784 9.42987 10.0316 10.585L19.5956 22.74C19.6891 22.8595 19.7467 23.0031 19.7616 23.154H23.0226C23.1718 23.153 23.3177 23.1103 23.4439 23.0308C23.5701 22.9512 23.6716 22.8379 23.7368 22.7038C23.802 22.5696 23.8284 22.4199 23.813 22.2715C23.7976 22.1231 23.741 21.9819 23.6496 21.864H23.6506Z" fill="#B7B7B7"/>
<path d="M54.1817 21.5601H1.66572C1.56067 21.5601 1.45664 21.5808 1.35958 21.621C1.26252 21.6612 1.17432 21.7201 1.10004 21.7944C1.02575 21.8687 0.966823 21.9568 0.926619 22.0539C0.886415 22.151 0.865723 22.255 0.865723 22.3601V28.9851C0.865723 29.1972 0.950008 29.4007 1.10004 29.5507C1.25007 29.7008 1.45355 29.7851 1.66572 29.7851H54.1817C54.3939 29.7851 54.5974 29.7008 54.7474 29.5507C54.8974 29.4007 54.9817 29.1972 54.9817 28.9851V22.3601C54.9817 22.255 54.961 22.151 54.9208 22.0539C54.8806 21.9568 54.8217 21.8687 54.7474 21.7944C54.6731 21.7201 54.5849 21.6612 54.4879 21.621C54.3908 21.5808 54.2868 21.5601 54.1817 21.5601V21.5601Z" fill="#DDDDDD"/>
<path d="M54.1815 21.5601H51.3115V29.7791H54.1815C54.3937 29.7791 54.5972 29.6948 54.7472 29.5447C54.8972 29.3947 54.9815 29.1912 54.9815 28.9791V22.3541C54.9799 22.1429 54.8949 21.941 54.7451 21.7923C54.5952 21.6435 54.3927 21.5601 54.1815 21.5601V21.5601Z" fill="#CCCCCC"/>
<path d="M23.7248 22.0061C23.6589 21.8724 23.5569 21.7598 23.4304 21.681C23.3039 21.6022 23.1579 21.5603 23.0088 21.5601H5.39981C5.25089 21.5612 5.10523 21.6038 4.97923 21.6832C4.85324 21.7626 4.7519 21.8756 4.68664 22.0094C4.62137 22.1433 4.59476 22.2927 4.60981 22.4409C4.62486 22.589 4.68096 22.73 4.77181 22.8481L13.6248 34.1701C13.6995 34.2652 13.7949 34.3422 13.9036 34.3952C14.0124 34.4482 14.1318 34.4759 14.2528 34.4761V34.4761C14.3741 34.4754 14.4937 34.4471 14.6025 34.3934C14.7113 34.3397 14.8065 34.262 14.8808 34.1661L23.6368 22.8441C23.728 22.7264 23.7845 22.5856 23.8001 22.4376C23.8156 22.2895 23.7896 22.1401 23.7248 22.0061V22.0061Z" fill="#676767"/>
<path d="M23.7247 22.0061C23.6587 21.8724 23.5567 21.7598 23.4302 21.681C23.3037 21.6022 23.1577 21.5603 23.0087 21.5601H19.7987L11.8267 31.8701L13.6267 34.1701C13.7014 34.2652 13.7967 34.3422 13.9055 34.3952C14.0143 34.4482 14.1337 34.4759 14.2547 34.4761V34.4761C14.376 34.4754 14.4956 34.4471 14.6044 34.3934C14.7132 34.3397 14.8083 34.262 14.8827 34.1661L23.6387 22.8441C23.7295 22.7262 23.7857 22.5853 23.8009 22.4373C23.8161 22.2892 23.7897 22.1399 23.7247 22.0061V22.0061Z" fill="#525252"/>
<path d="M12.9837 14.9499H13.0157C13.2219 14.9501 13.4203 14.8707 13.5694 14.7281C13.7184 14.5856 13.8067 14.391 13.8157 14.1849L13.9997 9.59991C13.5459 9.04004 13.0311 8.53256 12.4647 8.08691L12.2227 14.1219C12.2151 14.3323 12.2907 14.5372 12.4332 14.6922C12.5756 14.8472 12.7734 14.9398 12.9837 14.9499V14.9499Z" fill="#989898"/>
<path d="M16.2876 12.5068L16.0296 18.9628C16.0217 19.1741 16.0978 19.3798 16.2411 19.5351C16.3845 19.6904 16.5834 19.7827 16.7946 19.7918H16.8266C17.0328 19.792 17.2312 19.7126 17.3803 19.57C17.5293 19.4275 17.6176 19.2329 17.6266 19.0268L17.8106 14.4368L16.2876 12.5068Z" fill="#989898"/>
<path d="M42.7589 3.01123H39.1039C38.5194 3.01203 37.959 3.24459 37.5456 3.65794C37.1323 4.07128 36.8997 4.63167 36.8989 5.21623V7.66123C36.8989 7.8734 36.9832 8.07689 37.1332 8.22692C37.2833 8.37694 37.4867 8.46123 37.6989 8.46123H44.1699C44.3821 8.46123 44.5856 8.37694 44.7356 8.22692C44.8856 8.07689 44.9699 7.8734 44.9699 7.66123V5.21623C44.9695 4.92627 44.912 4.63923 44.8007 4.37149C44.6894 4.10376 44.5264 3.86057 44.3211 3.65582C44.1158 3.45106 43.8722 3.28875 43.6041 3.17816C43.3361 3.06756 43.0489 3.01084 42.7589 3.01123Z" fill="#DDDDDD"/>
<path d="M42.7595 3.01123H39.2495C39.8341 3.01202 40.3945 3.24459 40.8078 3.65794C41.2211 4.07128 41.4537 4.63167 41.4545 5.21623V7.66123C41.4545 7.8734 41.3702 8.07688 41.2202 8.22691C41.0702 8.37694 40.8667 8.46123 40.6545 8.46123H44.1645C44.3767 8.46123 44.5802 8.37694 44.7302 8.22691C44.8802 8.07688 44.9645 7.8734 44.9645 7.66123V5.21623C44.9637 4.63167 44.7312 4.07128 44.3178 3.65794C43.9045 3.24459 43.344 3.01202 42.7595 3.01123Z" fill="#CCCCCC"/>
</g>
<defs>
<clipPath id="clip0">
<rect width="54.111" height="49.533" fill="white" transform="translate(0.867676)"/>
</clipPath>
</defs>
</svg>
