<svg width="66" height="66" viewBox="0 0 66 66" fill="none" xmlns="http://www.w3.org/2000/svg">
<path d="M60.0066 0.0793457H5.00659C2.24517 0.0793457 0.0065918 2.31792 0.0065918 5.07935V60.0793C0.0065918 62.8408 2.24517 65.0793 5.00659 65.0793H60.0066C62.768 65.0793 65.0066 62.8408 65.0066 60.0793V5.07935C65.0066 2.31792 62.768 0.0793457 60.0066 0.0793457Z" fill="#F1F1F1"/>
<path d="M25.6385 46.9624C23.1455 46.9624 20.7546 47.9528 18.9917 49.7156C17.2289 51.4784 16.2385 53.8694 16.2385 56.3624V58.5624H21.4985L22.2985 57.9164L23.0535 58.5624H27.1225L35.5545 46.9624H25.6385Z" fill="#F9F9F9"/>
<path d="M39.8236 46.9624H35.5526L31.2606 50.4764L27.1206 53.8404V58.5624H42.4126L43.1896 57.9684L43.9666 58.5624H49.2266V56.3624C49.2266 55.1277 48.9834 53.9051 48.5108 52.7645C48.0382 51.6238 47.3455 50.5874 46.4723 49.7145C45.5991 48.8416 44.5625 48.1493 43.4217 47.6771C42.2809 47.2048 41.0583 46.962 39.8236 46.9624V46.9624Z" fill="white"/>
<path d="M21.4956 58.5643V53.9223C21.4956 53.7162 21.5775 53.5186 21.7232 53.3729C21.8689 53.2271 22.0665 53.1453 22.2726 53.1453C22.4787 53.1453 22.6763 53.2271 22.822 53.3729C22.9677 53.5186 23.0496 53.7162 23.0496 53.9223V58.5643H21.4956Z" fill="#BEBEBE"/>
<path d="M43.1886 53.1453C42.9826 53.1453 42.7849 53.2271 42.6392 53.3728C42.4935 53.5185 42.4116 53.7162 42.4116 53.9222V58.5643H43.9656V53.9222C43.9656 53.7162 43.8838 53.5185 43.7381 53.3728C43.5924 53.2271 43.3947 53.1453 43.1886 53.1453V53.1453Z" fill="#D8D8D8"/>
<path d="M30.7235 56.1494C31.2493 56.1494 31.6755 55.7231 31.6755 55.1974C31.6755 54.6716 31.2493 54.2454 30.7235 54.2454C30.1977 54.2454 29.7715 54.6716 29.7715 55.1974C29.7715 55.7231 30.1977 56.1494 30.7235 56.1494Z" fill="#D8D8D8"/>
<path d="M38.6795 56.1494C39.2053 56.1494 39.6315 55.7231 39.6315 55.1974C39.6315 54.6716 39.2053 54.2454 38.6795 54.2454C38.1538 54.2454 37.7275 54.6716 37.7275 55.1974C37.7275 55.7231 38.1538 56.1494 38.6795 56.1494Z" fill="#D8D8D8"/>
<path d="M49.6286 30.0812L32.7286 28.5322L15.8286 30.0812V37.2322H49.6286V30.0812Z" fill="#4A4A4A"/>
<path d="M47.8977 40.8292C49.8606 40.8292 51.4517 39.238 51.4517 37.2752C51.4517 35.3124 49.8606 33.7212 47.8977 33.7212C45.9349 33.7212 44.3438 35.3124 44.3438 37.2752C44.3438 39.238 45.9349 40.8292 47.8977 40.8292Z" fill="#B9B9B9"/>
<path d="M32.7296 50.5384C41.2751 50.5384 48.2026 44.0975 48.2026 36.1524C48.2026 28.2072 41.2751 21.7664 32.7296 21.7664C24.1841 21.7664 17.2566 28.2072 17.2566 36.1524C17.2566 44.0975 24.1841 50.5384 32.7296 50.5384Z" fill="#CECECE"/>
<path d="M20.3646 36.1533C20.3646 28.6963 26.4646 22.5643 34.2846 21.8393C33.7732 21.792 33.2552 21.768 32.7306 21.7673C25.0756 21.7673 18.7196 26.9353 17.4776 33.7233C17.011 33.7289 16.55 33.8263 16.1211 34.0101C15.6922 34.1938 15.3036 34.4602 14.9776 34.794C14.3193 35.4683 13.9558 36.3765 13.9671 37.3188C13.9783 38.2611 14.3635 39.1604 15.0378 39.8187C15.712 40.4771 16.6202 40.8406 17.5626 40.8293C17.7347 40.831 17.9065 40.8156 18.0756 40.7833C19.2322 43.7098 21.2559 46.2126 23.8752 47.9564C26.4946 49.7001 29.5845 50.6014 32.7306 50.5393C33.2552 50.5393 33.7732 50.5153 34.2846 50.4673C26.4676 49.7423 20.3646 43.6103 20.3646 36.1533Z" fill="#B9B9B9"/>
<path d="M44.8225 7.07935C43.545 7.07938 42.2948 7.44852 41.2222 8.14237C40.1496 8.83621 39.3003 9.8252 38.7765 10.9903C38.2527 9.82527 37.4034 8.83636 36.3307 8.14258C35.2581 7.44881 34.0079 7.07972 32.7305 7.07972C31.4531 7.07972 30.2029 7.44881 29.1302 8.14258C28.0576 8.83636 27.2083 9.82527 26.6845 10.9903C26.2881 10.1111 25.7048 9.32896 24.975 8.6984C24.2453 8.06785 23.3867 7.60409 22.4593 7.33949C21.5319 7.07488 20.5579 7.01579 19.6053 7.16634C18.6527 7.31689 17.7444 7.67345 16.9438 8.21116C16.1431 8.74887 15.4695 9.45477 14.9697 10.2796C14.47 11.1045 14.1562 12.0284 14.0503 12.987C13.9444 13.9456 14.049 14.9158 14.3566 15.8299C14.6642 16.7439 15.1676 17.5798 15.8315 18.2793V18.2793V26.9793L32.7315 28.5283L49.6315 26.9793V18.2793C50.526 17.3392 51.1249 16.1571 51.354 14.8798C51.5831 13.6025 51.4323 12.286 50.9203 11.0935C50.4083 9.90108 49.5576 8.88511 48.4737 8.17155C47.3897 7.458 46.1202 7.07824 44.8225 7.07935V7.07935Z" fill="white"/>
<path d="M18.9395 26.9793V18.2793C18.1369 17.4359 17.5706 16.3961 17.2976 15.2644C17.0245 14.1327 17.0543 12.949 17.3839 11.8325C17.7136 10.716 18.3314 9.70591 19.1754 8.90399C20.0193 8.10206 21.0596 7.53653 22.1915 7.2643C20.8001 6.92813 19.3373 7.05128 18.0218 7.61534C16.7062 8.1794 15.6085 9.15407 14.8928 10.3937C14.177 11.6333 13.8817 13.0712 14.0509 14.4926C14.2201 15.9139 14.8447 17.2424 15.8315 18.2793V18.2793V26.9793L32.7315 28.5283L34.2855 28.3863L18.9395 26.9793Z" fill="#F9F9F9"/>
<path d="M32.7306 41.8082C34.4796 43.9952 37.0576 43.0892 38.4176 42.3702C38.4918 42.3294 38.5544 42.2704 38.5995 42.1987C38.6447 42.127 38.6709 42.0451 38.6757 41.9605C38.6805 41.8759 38.6637 41.7916 38.627 41.7152C38.5902 41.6389 38.5347 41.5732 38.4656 41.5242C37.6866 40.9792 37.2326 39.7852 36.5886 39.1852C35.5886 38.2532 33.8656 37.6852 32.7306 38.7152C31.5956 37.6862 29.8726 38.2522 28.8726 39.1852C28.2286 39.7852 27.7726 40.9792 26.9956 41.5242C26.9265 41.5732 26.8709 41.6389 26.8342 41.7152C26.7974 41.7916 26.7807 41.8759 26.7855 41.9605C26.7903 42.0451 26.8165 42.127 26.8616 42.1987C26.9068 42.2704 26.9694 42.3294 27.0436 42.3702C28.4036 43.0882 30.9816 43.9952 32.7306 41.8082Z" fill="#4A4A4A"/>
<path d="M41.2597 37.9654C41.0536 37.9654 40.856 37.8835 40.7102 37.7378C40.5645 37.5921 40.4827 37.3945 40.4827 37.1884V35.5304C40.4827 35.3244 40.5645 35.1267 40.7102 34.981C40.856 34.8353 41.0536 34.7534 41.2597 34.7534C41.4657 34.7534 41.6634 34.8353 41.8091 34.981C41.9548 35.1267 42.0367 35.3244 42.0367 35.5304V37.1884C42.0367 37.3945 41.9548 37.5921 41.8091 37.7378C41.6634 37.8835 41.4657 37.9654 41.2597 37.9654V37.9654Z" fill="#454545"/>
<path d="M42.3936 40.4034H40.1346C40.0326 40.4034 39.9316 40.3833 39.8373 40.3442C39.743 40.3052 39.6574 40.2479 39.5852 40.1758C39.5131 40.1036 39.4559 40.018 39.4168 39.9237C39.3778 39.8294 39.3577 39.7284 39.3577 39.6263C39.3577 39.5243 39.3778 39.4233 39.4168 39.329C39.4559 39.2347 39.5131 39.1491 39.5852 39.0769C39.6574 39.0048 39.743 38.9476 39.8373 38.9085C39.9316 38.8695 40.0326 38.8494 40.1346 38.8494H42.3936C42.4957 38.8494 42.5967 38.8695 42.691 38.9085C42.7853 38.9476 42.8709 39.0048 42.9431 39.0769C43.0152 39.1491 43.0725 39.2347 43.1115 39.329C43.1506 39.4233 43.1707 39.5243 43.1707 39.6263C43.1707 39.7284 43.1506 39.8294 43.1115 39.9237C43.0725 40.018 43.0152 40.1036 42.9431 40.1758C42.8709 40.2479 42.7853 40.3052 42.691 40.3442C42.5967 40.3833 42.4957 40.4034 42.3936 40.4034V40.4034Z" fill="#9A9A9A"/>
<path d="M24.2016 37.9654C23.9955 37.9654 23.7979 37.8835 23.6521 37.7378C23.5064 37.5921 23.4246 37.3945 23.4246 37.1884V35.5304C23.4246 35.3244 23.5064 35.1267 23.6521 34.981C23.7979 34.8353 23.9955 34.7534 24.2016 34.7534C24.4076 34.7534 24.6053 34.8353 24.751 34.981C24.8967 35.1267 24.9786 35.3244 24.9786 35.5304V37.1884C24.9786 37.2905 24.9585 37.3915 24.9194 37.4857C24.8804 37.58 24.8231 37.6657 24.751 37.7378C24.6788 37.81 24.5932 37.8672 24.4989 37.9063C24.4046 37.9453 24.3036 37.9654 24.2016 37.9654V37.9654Z" fill="#454545"/>
<path d="M25.3307 40.4034H23.0717C22.9696 40.4034 22.8686 40.3833 22.7743 40.3442C22.6801 40.3052 22.5944 40.2479 22.5222 40.1758C22.4501 40.1036 22.3929 40.018 22.3538 39.9237C22.3148 39.8294 22.2947 39.7284 22.2947 39.6263C22.2947 39.5243 22.3148 39.4233 22.3538 39.329C22.3929 39.2347 22.4501 39.1491 22.5222 39.0769C22.5944 39.0048 22.6801 38.9476 22.7743 38.9085C22.8686 38.8695 22.9696 38.8494 23.0717 38.8494H25.3307C25.4327 38.8494 25.5338 38.8695 25.628 38.9085C25.7223 38.9476 25.8079 39.0048 25.8801 39.0769C25.9522 39.1491 26.0095 39.2347 26.0485 39.329C26.0876 39.4233 26.1077 39.5243 26.1077 39.6263C26.1077 39.7284 26.0876 39.8294 26.0485 39.9237C26.0095 40.018 25.9522 40.1036 25.8801 40.1758C25.8079 40.2479 25.7223 40.3052 25.628 40.3442C25.5338 40.3833 25.4327 40.4034 25.3307 40.4034V40.4034Z" fill="#9A9A9A"/>
<path d="M32.7306 24.7053C32.5245 24.7053 32.3269 24.6234 32.1812 24.4777C32.0355 24.332 31.9536 24.1344 31.9536 23.9283V15.2543C31.9536 15.0482 32.0355 14.8506 32.1812 14.7049C32.3269 14.5592 32.5245 14.4773 32.7306 14.4773C32.9367 14.4773 33.1343 14.5592 33.28 14.7049C33.4257 14.8506 33.5076 15.0482 33.5076 15.2543V23.9263C33.5079 24.0285 33.488 24.1298 33.449 24.2243C33.4101 24.3188 33.3529 24.4046 33.2807 24.477C33.2086 24.5494 33.1228 24.6068 33.0284 24.646C32.934 24.6851 32.8328 24.7053 32.7306 24.7053V24.7053Z" fill="#D8D8D8"/>
<path d="M24.9416 24.7053C24.7355 24.7053 24.5379 24.6234 24.3921 24.4777C24.2464 24.332 24.1646 24.1344 24.1646 23.9283V15.2543C24.1646 15.0482 24.2464 14.8506 24.3921 14.7049C24.5379 14.5592 24.7355 14.4773 24.9416 14.4773C25.1476 14.4773 25.3453 14.5592 25.491 14.7049C25.6367 14.8506 25.7186 15.0482 25.7186 15.2543V23.9263C25.7188 24.0285 25.6989 24.1298 25.66 24.2243C25.6211 24.3188 25.5639 24.4046 25.4917 24.477C25.4195 24.5494 25.3338 24.6068 25.2394 24.646C25.145 24.6851 25.0438 24.7053 24.9416 24.7053V24.7053Z" fill="#D8D8D8"/>
<path d="M40.5204 24.7053C40.3143 24.7053 40.1167 24.6234 39.971 24.4777C39.8253 24.332 39.7434 24.1344 39.7434 23.9283V15.2543C39.7434 15.0482 39.8253 14.8506 39.971 14.7049C40.1167 14.5592 40.3143 14.4773 40.5204 14.4773C40.7265 14.4773 40.9241 14.5592 41.0698 14.7049C41.2155 14.8506 41.2974 15.0482 41.2974 15.2543V23.9263C41.2977 24.0285 41.2778 24.1298 41.2388 24.2243C41.1999 24.3188 41.1427 24.4046 41.0706 24.477C40.9984 24.5494 40.9126 24.6068 40.8182 24.646C40.7238 24.6851 40.6226 24.7053 40.5204 24.7053V24.7053Z" fill="#D8D8D8"/>
<path d="M49.6295 26.9822H15.8325V30.0812H49.6295V26.9822Z" fill="#F9F9F9"/>
<path d="M18.9405 26.9822H15.8325V30.0802H18.9405V26.9822Z" fill="#BEBEBE"/>
</svg>
